<svg xmlns:x="http://ns.adobe.com/Extensibility/1.0/" xmlns:i="http://ns.adobe.com/AdobeIllustrator/10.0/"
  xmlns:graph="http://ns.adobe.com/Graphs/1.0/" xmlns="http://www.w3.org/2000/svg"
  xmlns:xlink="http://www.w3.org/1999/xlink" version="1.1" x="0px" y="0px" viewBox="0 0 100 125"
  xml:space="preserve" class="project__link-icon">
  <g i:extraneous="self">
    <g>
      <path
        d="M5273.1,2400.1v-2c0-2.8-5-4-9.7-4s-9.7,1.3-9.7,4v2c0,1.8,0.7,3.6,2,4.9l5,4.9c0.3,0.3,0.4,0.6,0.4,1v6.4     c0,0.4,0.2,0.7,0.6,0.8l2.9,0.9c0.5,0.1,1-0.2,1-0.8v-7.2c0-0.4,0.2-0.7,0.4-1l5.1-5C5272.4,2403.7,5273.1,2401.9,5273.1,2400.1z      M5263.4,2400c-4.8,0-7.4-1.3-7.5-1.8v0c0.1-0.5,2.7-1.8,7.5-1.8c4.8,0,7.3,1.3,7.5,1.8C5270.7,2398.7,5268.2,2400,5263.4,2400z" />
      <path d="M5268.4,2410.3c-0.6,0-1,0.4-1,1c0,0.6,0.4,1,1,1h4.3c0.6,0,1-0.4,1-1c0-0.6-0.4-1-1-1H5268.4z" />
      <path
        d="M5272.7,2413.7h-4.3c-0.6,0-1,0.4-1,1c0,0.6,0.4,1,1,1h4.3c0.6,0,1-0.4,1-1C5273.7,2414.1,5273.3,2413.7,5272.7,2413.7z" />
      <path
        d="M5272.7,2417h-4.3c-0.6,0-1,0.4-1,1c0,0.6,0.4,1,1,1h4.3c0.6,0,1-0.4,1-1C5273.7,2417.5,5273.3,2417,5272.7,2417z" />
    </g>
    <g>
      <path
        d="M83.9,70.3c0,7.5-6.1,13.6-13.6,13.6H29.7c-7.5,0-13.6-6.1-13.6-13.6V29.7c0-7.5,6.1-13.6,13.6-13.6h11.8V2.5H29.7     c-15,0-27.2,12.2-27.2,27.2v40.5c0,15,12.2,27.2,27.2,27.2h40.5c15,0,27.2-12.2,27.2-27.2V58.5H83.9V70.3z" />
      <path
        d="M90.7,2.5H56.6v13.6h17.7L36.7,53.7c-2.7,2.6-2.7,7,0,9.6c1.3,1.3,3.1,2,4.8,2s3.5-0.7,4.8-2l37.6-37.6v17.7h13.6V9.3     C97.5,5.5,94.5,2.5,90.7,2.5z" />
    </g>
  </g>
</svg>