<?xml version="1.0" encoding="utf-8"?>
<!-- Generator: Adobe Illustrator 15.1.0, SVG Export Plug-In . SVG Version: 6.00 Build 0)  -->
<!DOCTYPE svg PUBLIC "-//W3C//DTD SVG 1.0//EN" "http://www.w3.org/TR/2001/REC-SVG-20010904/DTD/svg10.dtd">
<svg class="home-svg home-svg__skill home-svg__html5" version="1.0" xmlns="http://www.w3.org/2000/svg" xmlns:xlink="http://www.w3.org/1999/xlink" viewBox="0 0 390 560" width="120" height="180">
<title>HTML5 Icon</title>
<g>
	<polygon fill="#E44F26" points="75.383,467.266 48.313,163.646 345.763,163.646 318.665,467.217 196.856,500.986 	"/>
	<polygon fill="#F1662A" points="197.038,475.175 295.465,447.887 318.623,188.471 197.038,188.471 	"/>
	<polygon fill="#EBEBEB" points="197.038,301.08 147.763,301.08 144.359,262.948 197.038,262.948 197.038,225.709 196.909,225.709 
		103.663,225.709 104.555,235.7 113.707,338.316 197.038,338.316 	"/>
	<polygon fill="#EBEBEB" points="197.038,397.788 196.875,397.834 155.403,386.635 152.751,356.937 132.6,356.937 115.371,356.937 
		120.588,415.404 196.866,436.58 197.038,436.532 	"/>
	<path fill="#010101" d="M75.988,81.135h18.924v18.696h17.311V81.135h18.925v56.618h-18.924v-18.958h-17.31v18.958H75.988
		L75.988,81.135L75.988,81.135z"/>
	<path fill="#010101" d="M156.032,99.91h-16.66V81.135h52.252V99.91h-16.667v37.843h-18.924V99.91H156.032z"/>
	<path fill="#010101" d="M199.917,81.135h19.733l12.137,19.894l12.127-19.894h19.739v56.618h-18.846V109.69l-13.021,20.13h-0.325
		l-13.028-20.13v28.063h-18.517V81.135z"/>
	<path fill="#010101" d="M273.071,81.135H292v37.903h26.612v18.714h-45.542V81.135z"/>
	<polygon fill="#FFFFFF" points="196.909,301.08 196.909,338.316 242.763,338.316 238.441,386.61 196.909,397.82 196.909,436.562 
		273.249,415.404 273.808,409.114 282.559,311.079 283.467,301.08 273.433,301.08 	"/>
	<polygon fill="#FFFFFF" points="196.909,225.709 196.909,248.837 196.909,262.856 196.909,262.948 286.736,262.948 
		286.736,262.948 286.856,262.948 287.603,254.578 289.299,235.7 290.19,225.709 	"/>
</g>
</svg>
