<svg class="home-svg home-svg__skill home-svg__pug" width="57px" height="35px" viewBox="0 0 57 35" version="1.1" xmlns="http://www.w3.org/2000/svg" xmlns:xlink="http://www.w3.org/1999/xlink">
  <title>Pug Icon</title>
  <g id="pug-icon" stroke="none" stroke-width="1" fill="none" fill-rule="evenodd">
    <g id="pug" fill-rule="nonzero">
      <path d="M47.4589803,10.6692337 C47.3705393,8.76091545 47.6358625,7.06945158 46.7514518,5.63821291 C44.6288663,2.08180169 39.3224024,0 28.7094748,0 L28.7094748,0.30359608 C28.7094748,0.30359608 28.4883721,0.30359608 28.4883721,0.30359608 C28.4883721,0.30359608 28.7094748,0.30359608 28.7094748,0.30359608 L28.7094748,1.54084278e-15 C18.0965471,1.54084278e-15 12.52476,2.08180169 10.4021745,5.68158378 C9.56198439,7.15619331 9.65042545,8.80428632 9.51776386,10.7126045 C9.42932279,12.2305849 8.72179428,13.8353071 9.031338,15.5701418 C9.38510226,17.825427 9.51776386,20.0807121 9.87152811,22.1625138 C10.1368513,23.8539777 12.52476,25.2852164 12.7458627,26.8899385 C13.3649501,31.3137671 18.0523265,33.3521979 28.6652542,33.3521979 L28.6652542,33.6991649 L28.399931,33.6991649 L28.4441516,33.6991649 L28.7094748,33.6991649 L28.7094748,33.3521979 C39.3224024,33.3521979 43.8328967,31.3137671 44.4077636,26.8899385 C44.6288663,25.2418455 46.8398929,23.8539777 47.1052161,22.1625138 C47.4589803,20.0807121 47.5916419,17.825427 47.9454062,15.5701418 C48.2549499,13.8353071 47.5474214,12.1872141 47.4589803,10.6692337 Z" id="Shape" fill="#EFCCA3"></path>
      <path d="M27.7637787,12.035416 C29.6850197,12.0791812 31.0254204,13.2608402 32.2764611,14.3549689 C33.7509019,15.6241583 36.2529833,16.4994612 37.2806239,17.59359 C38.3082644,18.6877187 39.6486651,19.7818474 40.1401454,21.4886882 C40.6316257,23.1955291 40.7656658,25.3837865 40.7656658,25.9527335 C40.7656658,26.5216804 41.0784259,26.390385 41.9720264,25.9527335 C44.0719876,24.946135 46.3953488,22.2326958 46.3953488,22.2326958 C46.1272687,23.9395366 43.8485874,25.4713168 43.6251873,27.0906273 C43.089027,31.5546726 38.6657046,33.6991649 27.7190986,33.6991649 L27.6744186,33.6991649 L27.9424988,33.6991649" id="Shape" fill="#CCAC8D"></path>
      <path d="M35.9300605,9.15675862 C36.3286578,10.5717731 37.7458928,15.3645641 35,13.7669671 C35,13.7669671 36.1515034,14.4516515 36.8601209,17.0534524 C37.613027,19.6552532 39.4288593,19.9747726 39.4288593,19.9747726 C39.4288593,19.9747726 42.396195,20.5681658 44.6106247,18.6054037 C46.4707456,16.9621611 46.7807658,14.0408409 45.9835711,11.8042051 C45.1863764,9.61321491 43.7691414,8.92853048 41.6875776,8.4720742 C39.6060137,7.96997228 35.4428859,7.55916162 35.9300605,9.15675862 Z" id="Shape" fill="#CCAC8D"></path>
      <g id="Group" transform="translate(35.813953, 9.628333)">
        <ellipse id="Oval" fill="#000000" cx="3.98408813" cy="3.65074286" rx="3.76988984" ry="3.5303887"></ellipse>
        <ellipse id="Oval" fill="#FFFFFF" cx="2.99877601" cy="2.08613878" rx="1" ry="1"></ellipse>
      </g>
      <path d="M34.4859125,13.6401382 C34.4859125,13.6401382 37.8702103,15.9948935 39.7122964,18.3060422 C41.5543825,20.6171909 41.5115433,21.0532567 41.5115433,21.0532567 L40.1835277,21.6637488 C40.1835277,21.6637488 38.2986024,18.0444027 35.9852849,16.6925987 C33.6291283,15.3407948 33.372093,14.2070237 33.372093,14.2070237 L34.4859125,13.6401382 Z" id="Shape" fill="#EFCCA3"></path>
      <path d="M28.4443228,12.035416 C26.5502052,12.0791812 25.1406293,13.2608402 23.8632011,14.3549689 C22.4095759,15.6241583 19.8547196,16.4994612 18.8415869,17.59359 C17.8284542,18.6877187 16.4629275,19.7818474 15.9783858,21.4886882 C15.493844,23.1955291 15.3176471,25.3837865 15.3176471,25.9527335 C15.3176471,26.5216804 15.4057456,26.5654456 14.1283174,25.9527335 C12.0580027,24.9899002 9.76744186,22.2326958 9.76744186,22.2326958 C10.0317373,23.9395366 12.278249,25.4713168 12.4984952,27.0906273 C13.1151847,31.5546726 17.4760602,33.6991649 28.2681259,33.6991649 L28.3121751,33.6991649 L28.4883721,33.6991649" id="Shape" fill="#CCAC8D"></path>
      <path d="M38.6646961,19.5103986 C36.5622498,16.8875384 33.1895755,14.4424992 28.5028722,14.4424992 L28.4590713,14.4424992 C23.772368,14.4424992 20.3996937,16.8875384 18.2972474,19.5103986 C16.1071992,22.2221693 16.282403,23.2890955 16.282403,25.8675004 C16.282403,35.2031045 19.5236744,32.535789 21.6699217,33.6916257 C23.8599699,34.8030072 26.1376201,34.4473651 28.4590713,34.4473651 L28.5028722,34.4473651 C30.8681243,34.4473651 33.1019735,34.7585519 35.2920218,33.6471705 C37.4382691,32.535789 40.6795405,35.292015 40.6795405,25.9564109 C40.7233414,23.378006 40.8547443,22.2221693 38.6646961,19.5103986 Z" id="Shape" fill="#56332B"></path>
      <path d="M28.9892665,17.6519435 C28.9892665,17.6519435 28.5509839,22.3485225 27.6744186,23.268471 L29.3023256,22.9779609 L28.9892665,17.6519435 Z" id="Shape" fill="#442823"></path>
      <path d="M28.8014311,17.6519435 C28.8014311,17.6519435 29.2397138,22.3485225 30.1162791,23.268471 L28.4883721,22.9779609 L28.8014311,17.6519435 Z" id="Shape" fill="#442823"></path>
      <path d="M25.3045495,15.4691763 C24.871923,14.4770094 26.4293782,12.8809148 28.8953488,12.8377771 C31.3613195,12.8377771 32.9187746,14.4338717 32.4861482,15.4691763 C32.0535218,16.5044809 30.4960666,16.8064447 28.8953488,16.8495824 C27.3378937,16.8064447 25.7371759,16.5044809 25.3045495,15.4691763 Z" id="Shape" fill="#56332B"></path>
      <path d="M28.6828566,17.0997918 C28.6828566,16.9378579 30.1522947,16.8973744 30.9302326,16.4115727 C30.9302326,16.4115727 29.3311381,16.8973744 28.9853879,16.694957 C28.6396378,16.5330231 28.5532002,16.0472214 28.5532002,16.0472214 C28.5532002,16.0472214 28.4235439,16.5330231 28.1642313,16.694957 C27.8616999,16.8568909 26.0465116,16.4115727 26.0465116,16.4115727 C26.0465116,16.4115727 28.4667627,16.9783414 28.4667627,17.0997918 C28.4667627,17.2212422 28.4235439,17.626077 28.4235439,17.9094614 C28.4235439,18.9215483 28.4235439,21.4315239 28.596419,21.6339413 C28.8557316,21.9982926 28.7692941,18.9215483 28.7692941,17.9094614 C28.7260753,17.5855935 28.7260753,17.2617257 28.6828566,17.0997918 Z" id="Shape" fill="#000000"></path>
      <path d="M29.1053177,23.268471 C29.8985336,23.268471 31.2983262,23.8033784 32.5581395,24.650315 C31.3449859,23.3576222 29.8985336,22.4661099 29.1053177,22.4661099 C28.2654422,22.4661099 26.4923715,23.4467734 25.2325581,24.8731931 C26.5390313,23.8925296 28.2187824,23.268471 29.1053177,23.268471 Z" id="Shape" fill="#7F4A41"></path>
      <path d="M28.3133283,30.6176412 C26.6504126,30.6176412 25.0312578,30.083274 23.5433858,29.6824985 C23.2370593,29.5934373 22.9307327,29.8160903 22.6244061,29.7270291 C19.8674669,28.836417 17.6356589,27.3223764 16.2790698,25.4075604 C16.2790698,25.5411522 16.2790698,25.7192746 16.2790698,25.8528664 C16.2790698,35.2042936 19.5173793,32.5769879 21.6616654,33.690253 C23.8497124,34.8035181 26.1252813,34.4472733 28.4446112,34.4472733 L28.4883721,34.4472733 C30.8514629,34.4472733 33.0832708,34.7589875 35.2713178,33.6457224 C37.4156039,32.5324573 40.6539135,35.2488242 40.6539135,25.897397 C40.6539135,25.5411522 40.6539135,25.1849074 40.6976744,24.8731931 C39.4286072,26.9661316 37.1092773,28.613764 34.2210553,29.5934373 C33.9584896,29.6824985 33.3458365,29.4598455 33.0832708,29.5043761 C31.507877,30.0387434 30.1075269,30.6176412 28.3133283,30.6176412 Z" id="Shape" fill="#442823"></path>
      <path d="M24.4186047,25.6755542 C24.4186047,25.6755542 23.1057764,29.0187253 23.9984996,30.4897206 L22.7906977,30.0439644 C22.7906977,30.0439644 23.6834209,26.6562177 24.4186047,25.6755542 Z" id="Shape" fill="#442823"></path>
      <path d="M32.5581395,25.6755542 C32.5581395,25.6755542 33.8709677,29.0187253 32.9782446,30.4897206 L34.1860465,30.0439644 C34.1860465,30.0439644 33.2408102,26.6562177 32.5581395,25.6755542 Z" id="Shape" fill="#442823"></path>
      <path d="M21.8606372,9.15675862 C21.4620399,10.5717731 20.0448049,15.3645641 22.7906977,13.7669671 C22.7906977,13.7669671 21.6391943,14.4516515 20.9305768,17.0534524 C20.2219593,19.6552532 18.3618384,19.9747726 18.3618384,19.9747726 C18.3618384,19.9747726 15.3945026,20.5681658 13.180073,18.6054037 C11.3199521,16.9621611 11.0099319,14.0408409 11.8071266,11.8042051 C12.6043213,9.56756928 14.0215562,8.92853048 16.1031201,8.4720742 C18.184684,7.96997228 22.3035232,7.55916162 21.8606372,9.15675862 Z" id="Shape" fill="#CCAC8D"></path>
      <path d="M28.4883721,21.9917213 C29.6656977,21.9917213 33.3284884,24.3695212 33.372093,27.2802763 C33.372093,27.2392798 33.372093,27.1982832 33.372093,27.1162901 C33.372093,24.0825454 30.4069767,21.6637488 28.4883721,21.6637488 C26.5697674,21.6637488 23.6046512,24.1235419 23.6046512,27.1162901 C23.6046512,27.1572867 23.6046512,27.1982832 23.6046512,27.2802763 C23.6482558,24.3695212 27.3110465,21.9917213 28.4883721,21.9917213 Z" id="Shape" fill="#000000"></path>
      <g id="Group" transform="translate(26.860465, 14.442499)" fill="#331712">
        <ellipse id="Oval" transform="translate(2.319926, 1.152633) rotate(-14.460093) translate(-2.319926, -1.152633) " cx="2.1175942" cy="1.15263268" rx="1" ry="1"></ellipse>
        <ellipse id="Oval" transform="translate(0.709440, 1.268374) rotate(17.235421) translate(-0.709440, -1.268374) " cx="0.507115639" cy="1.2683737" rx="1" ry="1"></ellipse>
      </g>
      <g id="Group" transform="translate(12.209302, 9.628333)">
        <ellipse id="Oval" fill="#000000" cx="4.16020672" cy="3.65074286" rx="3.97932817" ry="3.5303887"></ellipse>
        <ellipse id="Oval" fill="#FFFFFF" cx="5.2002584" cy="2.08613878" rx="1.04005168" ry="1"></ellipse>
      </g>
      <path d="M29.3023256,13.6447932 C29.3023256,13.5722744 28.3340016,14.3699805 28.0813953,14.4424992 C27.8287891,14.3699805 26.8604651,13.5722744 26.8604651,13.6447932 C26.8604651,13.6447932 27.6603849,13.6447932 28.0813953,13.6447932 C28.5024058,13.6447932 29.3023256,13.6447932 29.3023256,13.6447932 Z" id="Shape" fill="#7F4A41"></path>
      <path d="M21.6768782,13.6401382 C21.6768782,13.6401382 18.2925804,15.9948935 16.4504943,18.3060422 C14.6084082,20.6171909 14.6512474,21.0532567 14.6512474,21.0532567 L15.979263,21.6637488 C15.979263,21.6637488 17.8641883,18.0444027 20.1775057,16.6925987 C22.4908232,15.3407948 22.7906977,14.2070237 22.7906977,14.2070237 L21.6768782,13.6401382 Z" id="Shape" fill="#EFCCA3"></path>
      <path d="M14.633816,7.22124962 C14.633816,7.22124962 13.3761682,10.6140907 10.5813953,12.035416 C10.5813953,12.035416 14.9598728,11.5310748 14.633816,7.22124962 Z" id="Shape" fill="#CCAC8D"></path>
      <path d="M42.3429282,7.22124962 C42.3429282,7.22124962 43.600576,10.6140907 46.3953488,12.035416 C46.3953488,12.035416 42.0168714,11.5310748 42.3429282,7.22124962 Z" id="Shape" fill="#CCAC8D"></path>
      <path d="M35,12.035416 C35,12.035416 32.3709896,9.70355417 28.8507893,9.62833282 C28.8062298,9.62833282 28.9399083,9.62833282 28.8953488,9.62833282 C28.8507893,9.62833282 28.9399083,9.62833282 28.9399083,9.62833282 C25.3751485,9.70355417 22.7906977,12.035416 22.7906977,12.035416 C25.865303,10.2301036 28.4943134,10.2677143 28.9399083,10.2677143 C28.9399083,10.2677143 28.9399083,10.2677143 28.9399083,10.2677143 C28.9399083,10.2677143 28.9399083,10.2677143 28.9399083,10.2677143 C28.8953488,10.2677143 31.9253947,10.2301036 35,12.035416 Z" id="Shape" fill="#CCAC8D"></path>
      <path d="M31.744186,8.02361068 C31.744186,8.02361068 30.4965201,5.67250616 28.8329655,5.61652748 C28.8329655,5.61652748 28.8745544,5.61652748 28.8745544,5.61652748 C28.8745544,5.61652748 28.9161433,5.61652748 28.9161433,5.61652748 C27.6684773,5.67250616 26.0465116,8.02361068 26.0465116,8.02361068 C27.460533,6.17631427 28.9161433,6.23229295 28.9161433,6.23229295 C28.9161433,6.23229295 28.9161433,6.23229295 28.9161433,6.23229295 C28.9161433,6.23229295 28.9161433,6.23229295 28.9161433,6.23229295 C28.9161433,6.23229295 30.2885758,6.17631427 31.744186,8.02361068 Z" id="Shape" fill="#CCAC8D"></path>
      <path d="M16.2790698,19.610301 C16.2790698,19.610301 14.1704816,20.3737285 12.6451199,19.9090335 C12.6451199,19.9090335 12.6002564,19.9090335 12.6002564,19.9090335 C12.6002564,19.9090335 12.6002564,19.9090335 12.6002564,19.9090335 C11.254349,19.344761 10.5813953,17.6519435 10.5813953,17.6519435 C10.5813953,17.6519435 11.9273027,20.6392685 16.2790698,19.610301 Z" id="Shape" fill="#CCAC8D"></path>
      <path d="M39.8837209,19.610301 C39.8837209,19.610301 41.9923091,20.3737285 43.5176708,19.9090335 C43.5176708,19.9090335 43.5176708,19.9090335 43.5176708,19.9090335 C43.5176708,19.9090335 43.5176708,19.9090335 43.5176708,19.9090335 C45.3122139,19.344761 45.5813953,17.6519435 45.5813953,17.6519435 C45.5813953,17.6519435 44.235488,20.6392685 39.8837209,19.610301 Z" id="Shape" fill="#CCAC8D"></path>
      <path d="M18.7209302,6.71358993 C19.8476529,6.52834517 21.7110788,6.49129622 23.1844854,6.8988347 C25.0479113,7.45456899 23.5311693,9.49226139 23.9211886,9.60340824 C24.311208,9.7145551 24.8312339,8.19554804 28.2980728,8.34374385 C31.8082472,8.49193966 32.1982666,9.82570196 32.6749569,9.60340824 C33.1516473,9.38111453 32.1982666,5.89851298 37.4418605,6.71358993 C37.4418605,6.71358993 31.9382537,5.45392554 32.1982666,8.86242919 C32.1982666,8.86242919 29.0347761,6.78768784 24.6145564,8.64013547 C24.6578919,8.64013547 25.7846146,5.45392554 18.7209302,6.71358993 Z" id="Shape" fill="#CCAC8D"></path>
      <path d="M38.255814,6.41888855 C38.4186047,6.41888855 38.5,6.49912465 38.5813953,6.49912465 C38.6627907,6.49912465 38.5,6.41888855 38.255814,6.41888855 Z" id="Shape" fill="#CCAC8D"></path>
      <path d="M17.0930233,1.60472214 C17.0930233,1.60472214 12.2093023,7.62981384 11.4857881,9.93352537 C10.7622739,12.2815391 10.2196382,21.8951045 9.58656331,23.268471 L7.3255814,13.787812 L11.4857881,3.90843367 L17.0930233,1.60472214 Z" id="Shape" fill="#CCAC8D"></path>
      <path d="M39.8837209,1.60472214 C39.8837209,1.60472214 44.7674419,7.62981384 45.4909561,9.93352537 C46.2144703,12.2815391 46.7571059,21.8951045 47.3901809,23.268471 L49.6511628,13.787812 L45.4909561,3.90843367 L39.8837209,1.60472214 Z" id="Shape" fill="#CCAC8D"></path>
      <path d="M39.8982667,1.7673657 C39.8982667,1.7673657 44.7468647,6.14238375 46.1680055,11.193951 C47.5891463,16.2455182 47.0039707,22.3795641 48.0907254,23.1463199 C49.637261,24.2287986 51.3927878,17.7790297 51.9779634,17.1024805 C52.8975251,16.0200018 55.948798,13.2687018 56.1577893,12.7725657 C56.3667806,12.2764297 49.971647,4.74418211 47.1711637,3.2557739 C43.7855048,1.54184931 39.6056789,1.40653947 39.8982667,1.7673657 Z" id="Shape" fill="#56332B"></path>
      <path d="M43.9534884,4.01180534 C43.9534884,4.01180534 49.8225214,11.5148001 49.7368421,20.8613878 L52.0930233,16.0594712 C52.0501836,16.0594712 49.99388,9.92845261 43.9534884,4.01180534 Z" id="Shape" fill="#442823"></path>
      <path d="M16.264524,1.7673657 C16.264524,1.7673657 11.415926,6.14238375 9.99478518,11.193951 C8.57364439,16.2455182 9.15882001,22.3795641 8.07206529,23.1463199 C6.52552973,24.2287986 4.77000287,17.7790297 4.18482725,17.1024805 C3.26526556,16.0200018 0.213992689,13.2687018 0.00500139685,12.7725657 C-0.203989896,12.2764297 6.19114366,4.74418211 8.99162698,3.2557739 C12.3772859,1.54184931 16.5571118,1.40653947 16.264524,1.7673657 Z" id="Shape" fill="#56332B"></path>
      <path d="M13.0232558,4.01180534 C13.0232558,4.01180534 7.12316968,11.5148001 7.20930233,20.8613878 L4.88372093,16.0594712 C4.88372093,16.0594712 6.95090439,9.92845261 13.0232558,4.01180534 Z" id="Shape" fill="#442823"></path>
      <path d="M8.95348837,21.3769501 C8.95348837,21.3769501 9.65745869,23.8540971 10.7838112,24.6339397 C11.9101637,25.4137823 11.1357963,24.0375895 11.1357963,24.0375895 C11.1357963,24.0375895 9.93904681,23.6247316 10.1502379,20.4594882 C10.361429,17.2942448 8.95348837,21.3769501 8.95348837,21.3769501 Z" id="Shape" fill="#CCAC8D"></path>
      <path d="M48.0232558,21.3769501 C48.0232558,21.3769501 47.3192855,23.8540971 46.192933,24.6339397 C45.0665805,25.4137823 45.8409478,24.0375895 45.8409478,24.0375895 C45.8409478,24.0375895 47.0376974,23.6247316 46.8265063,20.4594882 C46.6153152,17.2942448 48.0232558,21.3769501 48.0232558,21.3769501 Z" id="Shape" fill="#CCAC8D"></path>
      <g id="Group" transform="translate(21.162791, 18.454305)" fill="#442823">
        <ellipse id="Oval" cx="3.39147287" cy="0.601770801" rx="1" ry="1"></ellipse>
        <ellipse id="Oval" cx="1.31136951" cy="2.52743737" rx="1" ry="1"></ellipse>
        <ellipse id="Oval" cx="0.633074935" cy="0.601770801" rx="1" ry="1"></ellipse>
      </g>
      <g id="Group" transform="translate(31.744186, 18.454305)" fill="#442823">
        <ellipse id="Oval" cx="0.406976744" cy="0.601770801" rx="1" ry="1"></ellipse>
        <ellipse id="Oval" cx="2.27906977" cy="2.52743737" rx="1" ry="1"></ellipse>
        <ellipse id="Oval" cx="2.88953488" cy="0.601770801" rx="1" ry="1"></ellipse>
      </g>
    </g>
  </g>
</svg>