
<svg class="home-contact-icon home-contact-icon__github" width="1.75em" height="1.75em" viewBox="0 0 28 28" version="1.1" xmlns="http://www.w3.org/2000/svg" xmlns:xlink="http://www.w3.org/1999/xlink">
    <g id="portfolio_main" stroke="none" stroke-width="1" fill="none" fill-rule="evenodd">
        <g id="Mobile" transform="translate(-134.000000, -3560.000000)" fill-rule="nonzero">
            <g id="footer" transform="translate(0.000000, 3489.000000)">
                <g id="github" transform="translate(134.000000, 71.000000)">
                    <path d="M26.121994,7.14747986 C24.8700752,4.94867818 23.1719272,3.20788383 21.0271032,1.92470412 C18.8819599,0.64145896 16.540103,0 13.9998723,0 C11.4599609,0 9.11733775,0.641655305 6.97264141,1.92470412 C4.82762584,3.20781838 3.12954171,4.94867818 1.87762287,7.14747986 C0.625895573,9.34621608 0,11.7472531 0,14.3505253 C0,17.4776459 0.89003206,20.2896329 2.67054311,22.7872061 C4.45086262,25.2849757 6.75077187,27.0133349 9.57007931,27.97248 C9.89825469,28.0349177 10.1411939,27.9910019 10.2991522,27.8418452 C10.4571744,27.6924921 10.5360897,27.5054408 10.5360897,27.2814767 C10.5360897,27.2441057 10.5329612,26.9078977 10.5268957,26.2724599 C10.5206387,25.6370222 10.5177017,25.082675 10.5177017,24.60968 L10.0984161,24.6840293 C9.83108727,24.7342281 9.49384557,24.7554988 9.08669102,24.7494776 C8.67972801,24.7436527 8.25725009,24.6999332 7.8198319,24.6186464 C7.38222216,24.5380795 6.9751953,24.3512246 6.59843209,24.0584743 C6.22186042,23.7657239 5.95453157,23.382524 5.79650937,22.9094636 L5.61422519,22.4794682 C5.49272368,22.1931972 5.30143702,21.8751838 5.04010982,21.5266061 C4.77878261,21.1777011 4.51451843,20.9411709 4.24718958,20.8166228 L4.11955872,20.7229662 C4.03451405,20.6607249 3.95559873,20.5856556 3.88262121,20.4985439 C3.80970753,20.4114322 3.75511805,20.3242551 3.71866121,20.236947 C3.68214053,20.1495735 3.71240417,20.0779076 3.80977138,20.0216875 C3.90713859,19.9654674 4.08310189,19.9381754 4.33842744,19.9381754 L4.70286811,19.9940029 C4.94593498,20.0439399 5.24659215,20.1930966 5.60522271,20.4423893 C5.96366174,20.6914856 6.25831726,21.0153238 6.48925312,21.4137732 C6.76890452,21.9246628 7.10582698,22.3139494 7.50097823,22.5818293 C7.89581025,22.8497093 8.29389847,22.9834202 8.69485983,22.9834202 C9.09582119,22.9834202 9.44212922,22.9522668 9.73391161,22.8902872 C10.0253748,22.8279804 10.298833,22.7343239 10.5541585,22.6098412 C10.663529,21.7748516 10.9613131,21.1333926 11.4472552,20.6850062 C10.7546392,20.6103951 10.131936,20.4980203 9.57882639,20.3486018 C9.02603604,20.198987 8.4547938,19.9561737 7.86548275,19.6195076 C7.27585248,19.2832996 6.78671793,18.8658048 6.39795141,18.3677431 C6.00912105,17.8694196 5.69001199,17.2151982 5.44107118,16.405668 C5.19200266,15.5958105 5.06743648,14.6616012 5.06743648,13.6027783 C5.06743648,12.0951763 5.54756856,10.8122584 6.50764116,9.75330462 C6.05790043,8.61987065 6.10035891,7.34925702 6.63514432,5.94159461 C6.98758169,5.82935074 7.5102361,5.91358273 8.20285215,6.19376697 C8.8955959,6.47408212 9.40279925,6.71421199 9.72497298,6.91330578 C10.0471467,7.11233411 10.3052815,7.28099442 10.4997606,7.41778141 C11.6301779,7.09400858 12.7967328,6.93208944 13.9997446,6.93208944 C15.2027564,6.93208944 16.3695667,7.09400858 17.5000479,7.41778141 L18.1927278,6.96952588 C18.6664113,6.67042707 19.2257779,6.39632952 19.8694869,6.14716777 C20.513579,5.89813692 21.0060974,5.82954709 21.3465315,5.94179095 C21.8931925,7.34951881 21.941908,8.620067 21.4920396,9.75350096 C22.4520484,10.8124547 22.932372,12.0956999 22.932372,13.6029747 C22.932372,14.6617975 22.8073589,15.598952 22.5586734,16.4150271 C22.3096688,17.231233 21.9878143,17.8847999 21.5929823,18.3771022 C21.1977033,18.869339 20.7054403,19.2835614 20.1161292,19.6197039 C19.5266905,19.9561083 18.9552567,20.1989215 18.4024663,20.3485364 C17.8494206,20.4981512 17.2267174,20.6105915 16.5341013,20.6853334 C17.165807,21.2457019 17.4817237,22.1302359 17.4817237,23.3385428 L17.4817237,27.2809531 C17.4817237,27.5049172 17.557702,27.6919031 17.7097864,27.8413216 C17.8616793,27.9904783 18.1015538,28.0343941 18.4297292,27.971891 C21.2494197,27.0128768 23.5493289,25.2844521 25.3295846,22.7866826 C27.1096487,20.2891093 28,17.4771224 28,14.3500017 C27.9993615,11.7470567 27.3731467,9.34621608 26.121994,7.14747986 Z" id="Shape"></path>
                </g>
            </g>
        </g>
    </g>
</svg>