
<svg class="home-contact-icon home-contact-icon__linkedin" width="1.75em" height="1.75em" viewBox="0 0 28 28" version="1.1" xmlns="http://www.w3.org/2000/svg" xmlns:xlink="http://www.w3.org/1999/xlink">
    <!-- Generator: Sketch 49.2 (51160) - http://www.bohemiancoding.com/sketch -->
    <g id="portfolio_main" stroke="none" stroke-width="1" fill="none" fill-rule="evenodd">
        <g id="Mobile" transform="translate(-187.000000, -3560.000000)" fill-rule="nonzero">
            <g id="footer" transform="translate(0.000000, 3489.000000)">
                <g id="linkedin" transform="translate(187.000000, 71.000000)">
                    <path d="M4.3203125,23.4427083 L8.53125,23.4427083 L8.53125,10.7916667 L4.3203125,10.7916667 L4.3203125,23.4427083 Z M8.8046875,6.890625 C8.79253472,6.25868056 8.57378472,5.73611111 8.1484375,5.32291667 C7.72309028,4.90972222 7.15798611,4.703125 6.453125,4.703125 C5.74826389,4.703125 5.17404514,4.90972222 4.73046875,5.32291667 C4.28689236,5.73611111 4.06510417,6.25868056 4.06510417,6.890625 C4.06510417,7.51041667 4.28081597,8.02994792 4.71223958,8.44921875 C5.14366319,8.86848958 5.70572917,9.078125 6.3984375,9.078125 L6.41666667,9.078125 C7.13368056,9.078125 7.7109375,8.86848958 8.1484375,8.44921875 C8.5859375,8.02994792 8.8046875,7.51041667 8.8046875,6.890625 Z M19.46875,23.4427083 L23.6796875,23.4427083 L23.6796875,16.1875 C23.6796875,14.3159722 23.2361111,12.9001736 22.3489583,11.9401042 C21.4618056,10.9800347 20.2890625,10.5 18.8307292,10.5 C17.1779514,10.5 15.9079861,11.2109375 15.0208333,12.6328125 L15.0572917,12.6328125 L15.0572917,10.7916667 L10.8463542,10.7916667 C10.8828125,11.59375 10.8828125,15.8107639 10.8463542,23.4427083 L15.0572917,23.4427083 L15.0572917,16.3697917 C15.0572917,15.9079861 15.0998264,15.5677083 15.1848958,15.3489583 C15.3671875,14.9236111 15.640625,14.562066 16.0052083,14.2643229 C16.3697917,13.9665799 16.8194444,13.8177083 17.3541667,13.8177083 C18.7638889,13.8177083 19.46875,14.7717014 19.46875,16.6796875 L19.46875,23.4427083 Z M28,5.25 L28,22.75 C28,24.1961806 27.4865451,25.4327257 26.4596354,26.4596354 C25.4327257,27.4865451 24.1961806,28 22.75,28 L5.25,28 C3.80381944,28 2.56727431,27.4865451 1.54036458,26.4596354 C0.513454861,25.4327257 0,24.1961806 0,22.75 L0,5.25 C0,3.80381944 0.513454861,2.56727431 1.54036458,1.54036458 C2.56727431,0.513454861 3.80381944,0 5.25,0 L22.75,0 C24.1961806,0 25.4327257,0.513454861 26.4596354,1.54036458 C27.4865451,2.56727431 28,3.80381944 28,5.25 Z" id="Shape"></path>
                </g>
            </g>
        </g>
    </g>
</svg>