<svg class="home-skill-icon home-skill-icon__bem" width="2.6875em" height="2.1875em" viewBox="0 0 43 35" version="1.1" xmlns="http://www.w3.org/2000/svg" xmlns:xlink="http://www.w3.org/1999/xlink">
  <title>BEM</title>
  <g id="bem-icon" stroke="none" stroke-width="1" fill="none" fill-rule="evenodd">
    <g id="bem" fill="#010101" fill-rule="nonzero">
      <path d="M0,5.33958798 L10.0237061,5.33958798 L10.0237061,8.21468792 L0,8.21468792 L0,5.33958798 Z M0,0 L10.0237061,0 L10.0237061,2.87509994 L0,2.87509994 L0,0 Z M17.9840527,10.6380168 L0,10.6380168 L0,13.5131167 L17.3101113,13.5131167 C19.2053203,13.5131167 23.6274746,13.5541126 25.270123,16.1417515 L25.270123,14.5399731 C24.4699014,11.99333 22.1114414,10.6380168 17.9838853,10.6380168 L17.9840527,10.6380168 Z M18.0259229,15.9774414 L0,15.9774414 L0,18.8525414 L17.3101113,18.8525414 C21.5217427,18.8525414 24.1751357,19.0168515 25.270123,19.5919368 L25.270123,18.3186152 C24.4276963,16.3060616 20.8900063,15.9774414 18.0260903,15.9774414 L18.0259229,15.9774414 Z M17.9840527,29.531554 L0,29.531554 L0,26.6564541 L17.3101113,26.6564541 C19.2053203,26.6564541 23.6274746,26.6154582 25.270123,24.0278193 L25.270123,25.6295977 C24.4699014,28.1762407 22.1114414,29.531554 17.9838853,29.531554 L17.9840527,29.531554 Z M18.0259229,24.1921293 L0,24.1921293 L0,21.3170294 L17.3101113,21.3170294 C21.5217427,21.3170294 24.1751357,21.1527193 25.270123,20.577634 L25.270123,21.8509555 C24.4276963,23.8635092 20.8900063,24.1921293 18.0260903,24.1921293 L18.0259229,24.1921293 Z M29.6502397,34.5015259 L42.875,34.5015259 L42.875,32.7352741 L30.029248,32.7352741 C28.8920557,32.7352741 26.1967925,32.6942783 25.2280854,31.1744916 L25.2280854,32.1603521 C25.6913364,33.6799755 27.1232944,34.5015259 29.6502397,34.5015259 Z M29.6082021,31.2566466 L42.8329624,31.2566466 L42.8329624,29.4905581 L30.029248,29.4905581 C27.4600977,29.4905581 25.8596543,29.4084031 25.227918,29.0387871 L25.227918,29.8191783 C25.7332065,31.0513407 27.8811436,31.2566466 29.6080347,31.2566466 L29.6082021,31.2566466 Z" id="Shape"></path>
    </g>
  </g>
</svg>