<svg class="home-skill-icon home-skill-icon__es6" width="1.5625em" height="2.1875em" viewBox="0 0 25 35" version="1.1" xmlns="http://www.w3.org/2000/svg" xmlns:xlink="http://www.w3.org/1999/xlink">
  <title>ES6</title>
  <g id="es6-icon" stroke="none" stroke-width="1" fill="none" fill-rule="evenodd">
    <g id="es6" fill-rule="nonzero">
      <polygon id="Shape" fill="#FFCC33" points="2.2751723 32.0546463 0 7.14285714 25 7.14285714 22.7224744 32.0506259 12.4847033 34.8214286"></polygon>
      <polygon id="Shape" fill="#F8DC3D" points="12.9310345 32.1428571 21.3055241 29.9334341 23.2758621 8.92857143 12.9310345 8.92857143"></polygon>
      <g id="Group" transform="translate(5.172414, 9.821429)">
        <g transform="translate(7.098987, 0.000000)" fill="#FFFFFF" id="Shape">
          <polygon points="0.0767681135 7.33078775 0.0767681135 10.3989741 3.8617663 11.2229359 3.50500093 15.2020944 0.0767681135 16.1258379 0.0767681135 19.3180306 6.37835713 17.5746923 6.424418 17.056338 7.22165073 8.97871127"></polygon>
          <polygon points="6.34996118 1.79096328 0.0483721662 0.0476249896 0.0483721662 3.23981763 6.35334558 5.01281854"></polygon>
        </g>
        <polygon id="Shape" fill="#EBEBEB" points="7.18640344 7.33078775 3.20304635 8.15474951 3.72102475 4.16141885 7.14446989 3.23866408 7.15800749 3.24245431 7.15800749 0.0500968748 7.14380951 0.0461418584 0.847255825 1.79096328 0.0349996561 8.15474951 0.0335138216 8.15474951 0.0340090998 8.16125881 0.0335138216 8.1657906 0.0345043779 8.1657906 0.307650279 11.2229359 0.32259117 11.2229359 0.875569226 17.5746923 7.17220546 19.3195137 7.18640344 19.3154763 7.18640344 16.1231189 7.17286583 16.1269915 3.7494207 15.2041543 3.40726604 11.2229359 7.18640344 10.3989741"></polygon>
      </g>
      <g id="Group" transform="translate(7.758621, 0.000000)" fill="#131313">
        <polygon id="Shape" points="8.4968652 1.44037386 6.56206897 1.44037386 8.57413793 4.02141041 8.57413793 5.2499019 4.42970219 5.2499019 4.42970219 3.81156627 6.44145768 3.81156627 4.42970219 1.23043707 4.42970219 0 8.4968652 0"></polygon>
        <polygon id="Shape" points="3.59827586 1.49883375 3.59827586 0 0.0268025078 0 0.0268025078 5.2499019 3.59827586 5.2499019 3.59827586 3.7513461 1.51057994 3.7513461 1.51057994 3.22770855 3.51990596 3.22770855 3.51990596 2.022286 1.51057994 2.022286 1.51057994 1.49883375"></polygon>
      </g>
    </g>
  </g>
</svg>