<svg class="home-skill-icon home-skill-icon__jquery" width="2.125em" height="2.125em" viewBox="0 0 34 34" version="1.1" xmlns="http://www.w3.org/2000/svg" xmlns:xlink="http://www.w3.org/1999/xlink">
  <title>jQuery</title>
  <g id="jquery-icon" stroke="none" stroke-width="1" fill="none" fill-rule="evenodd">
    <g id="jquery" fill-rule="nonzero">
      <ellipse id="Oval" fill="#0769AD" cx="17" cy="16.5405405" rx="17" ry="16.5405405"></ellipse>
      <g id="Layer_6" transform="translate(6.432432, 7.351351)" fill="#78CFF5">
        <g id="Group">
          <path d="M1.28036036,4.55883164 C-0.471711712,7.01863288 -0.26954955,10.2327732 1.0781982,12.8565612 C1.11189189,12.9221559 1.14558559,12.9877506 1.17927928,13.0533453 C1.21297297,13.0861426 1.21297297,13.11894 1.24666667,13.1845347 C1.24666667,13.217332 1.28036036,13.217332 1.28036036,13.2501294 C1.31405405,13.2829267 1.31405405,13.3157241 1.34774775,13.3813188 C1.38144144,13.4469135 1.44882883,13.5125082 1.48252252,13.6109002 C1.51621622,13.6436976 1.51621622,13.6764949 1.54990991,13.7420896 C1.5836036,13.8076843 1.65099099,13.9060764 1.68468468,13.9716711 C1.71837838,14.0044684 1.71837838,14.0372658 1.75207207,14.0700631 C1.81945946,14.1684552 1.88684685,14.2668472 1.95423423,14.3652393 L1.98792793,14.3980366 C2.05531532,14.4964287 2.1227027,14.5620234 2.19009009,14.6604154 C2.22378378,14.6932128 2.22378378,14.7260101 2.25747748,14.7588075 C2.32486486,14.8244022 2.39225225,14.8899969 2.42594595,14.9883889 C2.45963964,15.0211863 2.45963964,15.0539836 2.49333333,15.0539836 C2.56072072,15.1523757 2.6618018,15.2507677 2.76288288,15.3491598 C2.86396396,15.4475518 2.93135135,15.5131465 3.03243243,15.6115386 C3.06612613,15.6443359 3.09981982,15.6771333 3.09981982,15.6771333 C3.16720721,15.742728 3.23459459,15.8083227 3.30198198,15.8739174 C3.33567568,15.9067147 3.36936937,15.9395121 3.40306306,15.9395121 C3.50414414,16.0379041 3.60522523,16.1034988 3.67261261,16.2018909 L3.70630631,16.2346882 C3.80738739,16.3002829 3.87477477,16.3658776 3.97585586,16.4314723 C4.00954955,16.4642697 4.04324324,16.497067 4.07693694,16.5298644 C4.14432432,16.5954591 4.21171171,16.6282564 4.2790991,16.6938511 C4.31279279,16.7266485 4.34648649,16.7594458 4.38018018,16.7922432 C4.44756757,16.8578379 4.54864865,16.8906352 4.61603604,16.9562299 C4.64972973,16.9890273 4.68342342,16.9890273 4.71711712,17.0218246 C4.71711712,17.0218246 4.71711712,17.0218246 4.75081081,17.054622 C4.8181982,17.1202167 4.91927928,17.153014 4.98666667,17.2186087 C5.02036036,17.2514061 5.05405405,17.2514061 5.08774775,17.2842034 C5.22252252,17.3497981 5.3236036,17.4153928 5.45837838,17.5137849 C5.49207207,17.5465822 5.52576577,17.5465822 5.55945946,17.5793796 C5.66054054,17.6449743 5.72792793,17.6777716 5.82900901,17.7433663 C5.8627027,17.7761637 5.93009009,17.808961 5.96378378,17.808961 C6.03117117,17.8417584 6.09855856,17.8745557 6.16594595,17.9073531 C6.16594595,17.9073531 6.19963964,17.9073531 6.19963964,17.9401504 C6.23333333,17.9401504 6.26702703,17.9729478 6.26702703,17.9729478 C6.36810811,18.0057451 6.46918919,18.0713398 6.57027027,18.1041372 C6.60396396,18.1041372 6.60396396,18.1369345 6.63765766,18.1369345 C6.77243243,18.2025292 6.87351351,18.2353266 7.00828829,18.2681239 C7.04198198,18.2681239 7.07567568,18.3009213 7.10936937,18.3009213 C7.21045045,18.3337186 7.34522523,18.3993133 7.44630631,18.4321107 L7.48,18.4321107 C7.61477477,18.464908 7.74954955,18.5305027 7.85063063,18.5633001 C7.88432432,18.5633001 7.91801802,18.5960974 7.95171171,18.5960974 C8.08648649,18.6288948 8.22126126,18.6944895 8.35603604,18.6944895 C16.8805405,20.2031675 19.3738739,13.7092923 19.3738739,13.7092923 C17.2848649,16.3658776 13.5785586,17.054622 10.1081081,16.2674856 C9.97333333,16.2346882 9.83855856,16.2018909 9.70378378,16.1690935 C9.67009009,16.1690935 9.6363964,16.1362962 9.6027027,16.1362962 C9.46792793,16.1034988 9.36684685,16.0707015 9.23207207,16.0051068 C9.19837838,16.0051068 9.19837838,16.0051068 9.16468468,15.9723094 C9.0636036,15.9395121 8.92882883,15.9067147 8.82774775,15.84112 C8.79405405,15.84112 8.76036036,15.8083227 8.72666667,15.8083227 C8.59189189,15.7755253 8.49081081,15.7099306 8.35603604,15.6771333 C8.32234234,15.6771333 8.32234234,15.6443359 8.28864865,15.6443359 C8.18756757,15.6115386 8.08648649,15.5459439 7.98540541,15.5131465 C7.95171171,15.5131465 7.91801802,15.4803492 7.88432432,15.4803492 C7.81693694,15.4475518 7.71585586,15.4147545 7.64846847,15.3491598 C7.58108108,15.3163624 7.54738739,15.2835651 7.48,15.2835651 C7.37891892,15.2179704 7.27783784,15.185173 7.21045045,15.1195783 C7.17675676,15.086781 7.14306306,15.086781 7.10936937,15.0539836 C6.97459459,14.9883889 6.87351351,14.9227942 6.73873874,14.8244022 C6.70504505,14.7916048 6.67135135,14.7916048 6.63765766,14.7588075 C6.53657658,14.6932128 6.46918919,14.6604154 6.36810811,14.5948207 C6.33441441,14.5620234 6.30072072,14.5620234 6.30072072,14.529226 C6.23333333,14.4636313 6.13225225,14.430834 6.06486486,14.3652393 C6.03117117,14.3324419 5.99747748,14.2996446 5.96378378,14.2996446 C5.8963964,14.2340499 5.82900901,14.2012525 5.72792793,14.1356578 C5.69423423,14.1028605 5.66054054,14.0700631 5.62684685,14.0700631 C5.52576577,14.0044684 5.45837838,13.9060764 5.3572973,13.8404817 C5.3572973,13.8404817 5.3236036,13.8404817 5.3236036,13.8076843 C5.22252252,13.7092923 5.12144144,13.6436976 5.02036036,13.5453055 C4.98666667,13.5125082 4.95297297,13.4797108 4.95297297,13.4797108 C4.88558559,13.4141161 4.8181982,13.3485214 4.75081081,13.2829267 C4.71711712,13.2501294 4.68342342,13.217332 4.68342342,13.217332 C4.58234234,13.11894 4.51495495,13.0533453 4.41387387,12.9549532 C4.31279279,12.8565612 4.24540541,12.7581691 4.14432432,12.6597771 C4.11063063,12.6269797 4.11063063,12.5941824 4.07693694,12.5941824 C4.00954955,12.5285877 3.94216216,12.4301956 3.87477477,12.3646009 C3.84108108,12.3318036 3.84108108,12.2990062 3.80738739,12.2662089 C3.74,12.1678168 3.67261261,12.0694248 3.60522523,11.9710327 C1.65099099,9.38004208 0.977117117,5.83792829 2.52702703,2.91896414" id="Shape"></path>
          <path d="M6.73873874,2.45980124 C5.45837838,4.26365549 5.52576577,6.62506468 6.53657658,8.52731098 C6.70504505,8.85528448 6.90720721,9.15046063 7.10936937,9.44563678 C7.31153153,9.70801558 7.51369369,10.0359891 7.74954955,10.2327732 C7.85063063,10.3311652 7.95171171,10.4295573 8.05279279,10.5279493 C8.08648649,10.5607467 8.08648649,10.5607467 8.12018018,10.593544 C8.22126126,10.6919361 8.32234234,10.7575308 8.42342342,10.8559228 C8.5245045,10.9543149 8.65927928,11.0527069 8.76036036,11.1183016 C8.79405405,11.151099 8.82774775,11.151099 8.82774775,11.1838963 C8.92882883,11.2822884 9.0636036,11.3478831 9.19837838,11.4462751 C9.26576577,11.4790725 9.29945946,11.5118698 9.36684685,11.5446672 C9.40054054,11.5774645 9.43423423,11.5774645 9.43423423,11.6102619 C9.53531532,11.6758566 9.6027027,11.7086539 9.70378378,11.7742486 C9.70378378,11.7742486 9.73747748,11.7742486 9.73747748,11.807046 C9.80486486,11.8398433 9.90594595,11.905438 9.97333333,11.9382354 C10.007027,11.9382354 10.0407207,11.9710327 10.0407207,11.9710327 C10.1081081,12.0038301 10.1418018,12.0366274 10.2091892,12.0694248 C10.2091892,12.0694248 10.2091892,12.0694248 10.2428829,12.0694248 C10.343964,12.1350195 10.4787387,12.1678168 10.5798198,12.2334115 C10.6135135,12.2334115 10.6135135,12.2662089 10.6472072,12.2662089 C10.7482883,12.2990062 10.8493694,12.3318036 10.9167568,12.3646009 C10.9504505,12.3646009 10.9841441,12.3973983 11.0515315,12.3973983 C11.1526126,12.4301956 11.22,12.462993 11.3210811,12.4957903 C11.3547748,12.4957903 11.3884685,12.5285877 11.4221622,12.5285877 C11.5569369,12.561385 11.658018,12.6269797 11.7927928,12.6269797 C18.3967568,13.6764949 19.912973,8.75689243 19.912973,8.75689243 C18.5315315,10.6919361 15.8697297,11.6102619 13.0394595,10.8887202 C12.9046847,10.8559228 12.8036036,10.8231255 12.6688288,10.7903281 C12.6351351,10.7903281 12.6014414,10.7575308 12.5677477,10.7575308 C12.4666667,10.7247334 12.3992793,10.6919361 12.2981982,10.6591387 C12.2645045,10.6591387 12.2308108,10.6263414 12.1971171,10.6263414 C12.096036,10.593544 11.994955,10.5607467 11.9275676,10.5279493 C11.8938739,10.5279493 11.8601802,10.495152 11.8601802,10.495152 C11.7590991,10.4295573 11.6243243,10.3967599 11.5232432,10.3311652 C11.4558559,10.2983679 11.4221622,10.2655705 11.3547748,10.2327732 C11.3210811,10.1999758 11.2873874,10.1999758 11.2536937,10.1671785 C11.1863063,10.1343811 11.1189189,10.1015838 11.0515315,10.0359891 C11.0178378,10.0359891 11.0178378,10.0031917 10.9841441,10.0031917 C10.8830631,9.93759702 10.8156757,9.90479967 10.7145946,9.83920497 C10.6809009,9.80640762 10.6472072,9.80640762 10.6472072,9.77361027 C10.5798198,9.74081293 10.5461261,9.70801558 10.4787387,9.67521823 C10.343964,9.60962353 10.2428829,9.51123148 10.1081081,9.41283943 C10.0744144,9.38004208 10.0407207,9.38004208 10.0407207,9.34724473 C8.79405405,8.39612158 7.81693694,7.08422758 7.34522523,5.60834684 C6.83981982,4.06687139 6.97459459,2.36140919 7.81693694,0.951123148" id="Shape"></path>
          <path d="M11.3547748,0.918325798 C10.6135135,2.00063834 10.5124324,3.34532969 11.0515315,4.52603429 C11.5906306,5.80513094 12.7362162,6.78905143 14.0502703,7.24821433 C14.1176577,7.28101168 14.1513514,7.28101168 14.2187387,7.31380903 C14.2524324,7.31380903 14.2524324,7.31380903 14.2861261,7.34660638 C14.3535135,7.37940373 14.4545946,7.41220108 14.521982,7.41220108 C18.1609009,8.10094543 19.138018,5.60834684 19.4075676,5.21477864 C18.5315315,6.42828058 17.0827027,6.72345673 15.2969369,6.29709118 C15.1621622,6.26429383 14.9936937,6.19869913 14.8589189,6.16590178 C14.6904505,6.10030708 14.521982,6.03471238 14.3535135,5.96911768 C14.0502703,5.80513094 13.747027,5.64114419 13.4437838,5.44436009 C11.8601802,4.26365549 10.8493694,2.03343569 11.8938739,0.196784099" id="Shape"></path>
        </g>
      </g>
    </g>
  </g>
</svg>