<svg class="home-skill-icon home-skill-icon__less" width="4em" height="2.1875em" viewBox="0 0 300.000000 129.000000" version="1.0" xmlns="http://www.w3.org/2000/svg" preserveAspectRatio="xMidYMid meet">
  <title>Less</title>
  <g transform="translate(0.000000,129.000000) scale(0.100000,-0.100000)" fill="#214674" stroke="none">
    <path d="M190 1271 c-20 -10 -44 -36 -58 -62 -24 -43 -24 -47 -18 -235 6 -184
      6 -191 -14 -217 -14 -18 -35 -29 -61 -33 l-39 -7 0 -73 c0 -70 1 -74 23 -74
      27 0 86 -35 89 -52 1 -7 2 -104 3 -215 0 -187 1 -203 21 -229 42 -57 67 -68
      169 -72 l95 -4 0 66 0 66 -40 0 c-29 0 -42 5 -50 21 -7 12 -11 87 -10 200 0
      157 -2 186 -19 223 -12 28 -29 48 -49 57 l-29 13 31 21 c59 39 66 68 65 278 0
      132 3 193 12 203 7 9 31 14 65 14 l54 0 0 -370 c0 -225 4 -389 11 -419 23
      -106 93 -162 204 -160 75 1 111 11 108 30 -1 8 -7 47 -13 87 -11 66 -14 72
      -36 72 -17 0 -27 8 -34 26 -6 15 -10 196 -10 445 l0 419 -218 0 c-193 0 -221
      -2 -252 -19z"
    />
    <path d="M2600 1230 c0 -56 2 -60 23 -60 38 0 65 -11 72 -28 3 -10 6 -99 5
      -199 0 -205 8 -241 60 -271 16 -9 30 -19 30 -22 0 -3 -14 -13 -30 -22 -52 -29
      -61 -70 -60 -247 2 -216 2 -218 -16 -235 -8 -9 -31 -16 -50 -16 l-34 0 0 -65
      0 -65 88 0 c108 0 147 17 180 81 23 43 24 48 18 232 -4 124 -3 194 4 207 12
      23 60 50 90 50 18 0 20 6 20 74 l0 73 -39 7 c-26 4 -47 15 -61 33 -20 26 -20
      33 -14 217 6 188 6 192 -18 235 -34 64 -73 81 -180 81 l-88 0 0 -60z"
    />
    <path d="M970 985 c-109 -31 -184 -98 -238 -212 -24 -53 -27 -69 -27 -173 0
      -108 2 -119 31 -180 49 -101 115 -160 215 -191 109 -34 231 -21 345 37 30 15
      54 28 54 30 0 1 -18 34 -40 72 l-41 70 -42 -20 c-23 -12 -69 -23 -103 -26
      -100 -8 -172 38 -199 126 l-6 22 225 0 225 0 6 53 c13 109 -29 250 -96 316
      -73 74 -202 105 -309 76z m149 -180 c26 -13 40 -36 56 -92 6 -23 6 -23 -119
      -23 -139 0 -141 1 -111 61 32 60 113 86 174 54z"
    />
    <path d="M1586 970 c-129 -51 -190 -184 -135 -297 29 -59 76 -96 190 -143 106
      -45 132 -66 127 -101 -9 -66 -138 -60 -244 10 l-30 21 -52 -77 c-29 -41 -51
      -77 -50 -79 24 -24 135 -76 189 -89 207 -51 393 45 407 209 10 120 -48 191
      -203 250 -111 43 -151 72 -141 104 16 48 113 48 194 1 18 -10 37 -19 41 -19 4
      0 29 30 56 66 l49 67 -25 20 c-13 11 -49 31 -79 46 -76 35 -221 41 -294 11z"
    />
    <path d="M2199 977 c-107 -40 -160 -102 -167 -197 -6 -79 1 -103 45 -151 37
      -41 97 -76 205 -118 69 -28 93 -51 84 -85 -14 -57 -127 -57 -222 0 -32 19 -58
      33 -59 32 -1 -2 -23 -34 -49 -73 -57 -82 -56 -87 33 -132 77 -38 174 -58 249
      -50 168 18 262 105 262 241 0 110 -56 174 -206 232 -110 42 -134 58 -134 88 0
      58 90 68 182 21 32 -16 59 -27 61 -24 2 2 25 33 52 68 56 74 58 70 -55 125
      -56 27 -78 31 -155 34 -57 1 -103 -3 -126 -11z"
    />
  </g>
</svg>
