<svg class="home-icon home-icon__tool home-icon__npm" width="4.5em" height="1.75em" viewBox="0 0 72 28" version="1.1" xmlns="http://www.w3.org/2000/svg" xmlns:xlink="http://www.w3.org/1999/xlink">
    <title>NPM</title>
    <g id="npm-Icon" stroke="none" stroke-width="1" fill="none" fill-rule="evenodd">
        <g id="npm" fill-rule="nonzero">
            <polyline id="Shape" fill="#CB3837" points="0 0 0 24 19.962963 24 19.962963 28 35.9333333 28 35.9333333 24 71.8666667 24 71.8666667 0"></polyline>
            <polyline id="Shape" fill="#FFFFFF" points="4.66666667 4.66666667 4.66666667 20.3466667 12.7166667 20.3466667 12.7166667 8.58666667 16.7416667 8.58666667 16.7416667 20.3466667 20.7666667 20.3466667 20.7666667 4.66666667 24.7916667 4.66666667 24.7916667 24.2666667 32.8416667 24.2666667 32.8416667 8.58666667 36.8666667 8.58666667 36.8666667 16.4266667 32.8416667 16.4266667 32.8416667 20.3466667 40.8916667 20.3466667 40.8916667 4.66666667 44.9166667 4.66666667 44.9166667 20.3466667 52.9666667 20.3466667 52.9666667 8.58666667 56.9916667 8.58666667 56.9916667 20.3466667 61.0166667 20.3466667 61.0166667 8.58666667 65.0416667 8.58666667 65.0416667 20.3466667 69.0666667 20.3466667 69.0666667 4.66666667"></polyline>
        </g>
    </g>
</svg>