<svg class="home-svg home-svg__tool home-svg__sketch" width="70px" height="63px" viewBox="0 0 96 86" version="1.1" xmlns="http://www.w3.org/2000/svg" xmlns:xlink="http://www.w3.org/1999/xlink">
    <title>Sketch Icon</title>
    <g id="sketch" stroke="none" stroke-width="1" fill="none" fill-rule="evenodd">
        <g id="_sketch" fill-rule="nonzero">
            <polygon id="Shape" fill="#FDB300" points="20.9032258 2.8314732 47.9032258 0 74.9032258 2.8314732 95.8064516 30.6662946 47.9032258 86 0 30.6662946"></polygon>
            <path d="M19.403,30.666295 L47.903,86.000295 L0,30.666295 M76.403678,30.666295 L47.903678,86.000295 L95.806678,30.666295" id="Shape" fill="#EA6C00"></path>
            <polyline id="Shape" fill="#FDAD00" points="19.403 30.666295 76.403 30.666295 47.903 86.000295"></polyline>
            <path d="M47.903,0 L20.903,2.831 L19.403,30.666 M47.903452,0 L74.903452,2.831 L76.403452,30.666" id="Shape" fill="#FDD231"></path>
            <path d="M95.806678,30.666 L74.903678,2.831 L76.403678,30.666 M0,30.666 L20.903,2.831 L19.403,30.666" id="Shape" fill="#FDAD00"></path>
            <polyline id="Shape" fill="#FEEEB7" points="47.903 0 19.403 30.666 76.403 30.666"></polyline>
        </g>
    </g>
</svg>