<svg class="home-icon home-icon__bem" width="2.688em" height="2.188em" viewBox="0 0 43 35" xmlns="http://www.w3.org/2000/svg"><title>BEM</title><path d="M0 5.34h10.024v2.875H0V5.34zM0 0h10.024v2.875H0V0zm17.984 10.638H0v2.875h17.31c1.895 0 6.317.041 7.96 2.629V14.54c-.8-2.547-3.159-3.902-7.286-3.902zm.042 5.34H0v2.875h17.31c4.212 0 6.865.164 7.96.739v-1.273c-.842-2.013-4.38-2.342-7.244-2.342zm-.042 13.554H0v-2.876h17.31c1.895 0 6.317-.04 7.96-2.628v1.602c-.8 2.546-3.159 3.902-7.286 3.902zm.042-5.34H0v-2.875h17.31c4.212 0 6.865-.164 7.96-.74v1.274c-.842 2.013-4.38 2.341-7.244 2.341zm11.624 10.31h13.225v-1.767H30.029c-1.137 0-3.832-.04-4.8-1.56v.985c.462 1.52 1.894 2.342 4.421 2.342zm-.042-3.245h13.225V29.49H30.029c-2.569 0-4.17-.083-4.801-.452v.78c.505 1.232 2.653 1.438 4.38 1.438z" fill="#010101" fill-rule="nonzero"/></svg>