<svg class="home-icon home-icon__es6" width="25" height="35" viewBox="0 0 25 35" xmlns="http://www.w3.org/2000/svg"><title>ES6</title><g fill-rule="nonzero" fill="none"><path fill="#FC3" d="M2.275 32.055L0 7.143h25L22.722 32.05l-10.237 2.77z"/><path fill="#F8DC3D" d="M12.931 32.143l8.375-2.21 1.97-21.004H12.93z"/><g fill="#FFF"><path d="M12.348 17.152v3.068l3.785.824-.357 3.98-3.428.923v3.192l6.302-1.743.046-.518.797-8.078zM18.621 11.612L12.32 9.87v3.192l6.305 1.773z"/></g><path fill="#EBEBEB" d="M12.359 17.152l-3.984.824.518-3.993 3.424-.923.013.004V9.872l-.014-.004-6.296 1.744-.813 6.364h-.001v.011l.274 3.057h.015l.553 6.352 6.297 1.745.014-.004v-3.192l-.014.003-3.423-.922-.342-3.982 3.779-.824z"/><g fill="#131313"><path d="M16.255 1.44h-1.934l2.012 2.581V5.25h-4.145V3.812H14.2L12.188 1.23V0h4.067zM11.357 1.499V0H7.785v5.25h3.572V3.75H9.269v-.523h2.01V2.022h-2.01V1.5z"/></g></g></svg>