<svg class="home-svg home-svg__skill home-svg__jquery" width="34" height="34" viewBox="0 0 34 34" xmlns="http://www.w3.org/2000/svg"><title>jQuery Icon</title><g fill-rule="nonzero" fill="none"><ellipse fill="#0769AD" cx="17" cy="16.541" rx="17" ry="16.541"/><g fill="#78CFF5"><path d="M7.713 11.91c-1.752 2.46-1.55 5.674-.202 8.298l.1.197c.034.032.034.065.068.13 0 .034.034.034.034.066.033.033.033.066.067.132.034.065.101.13.135.23.034.032.034.065.067.13.034.066.101.164.135.23.034.033.034.066.068.098l.202.296.033.032c.068.099.135.164.203.263.033.033.033.065.067.098.067.066.135.131.168.23.034.033.034.065.068.065.067.099.168.197.27.296a658222.801 658222.801 0 0 1 .336.327l.202.197c.034.033.068.066.101.066.102.098.203.164.27.262l.034.033c.1.066.168.131.27.197l.1.098c.068.066.135.099.203.164l.1.099c.068.065.17.098.236.164.034.032.068.032.102.065l.033.033c.068.066.169.098.236.164.034.033.067.033.101.066.135.065.236.13.37.23.035.032.068.032.102.065.101.065.168.098.27.164a.258.258 0 0 0 .134.065l.202.099s.034 0 .034.033c.034 0 .067.032.067.032.102.033.203.099.304.131.033 0 .033.033.067.033.135.066.236.099.37.131.034 0 .068.033.102.033.1.033.236.099.337.131h.033c.135.033.27.099.371.132.034 0 .067.032.101.032.135.033.27.099.404.099 8.525 1.509 11.018-4.985 11.018-4.985-2.089 2.656-5.795 3.345-9.265 2.558l-.405-.099c-.033 0-.067-.032-.1-.032a1.672 1.672 0 0 1-.371-.132c-.034 0-.034 0-.068-.032-.101-.033-.236-.066-.337-.132-.034 0-.067-.032-.1-.032-.136-.033-.237-.099-.372-.132-.033 0-.033-.032-.067-.032-.101-.033-.202-.099-.303-.132-.034 0-.068-.032-.101-.032-.068-.033-.169-.066-.236-.131-.067-.033-.101-.066-.169-.066-.1-.066-.202-.098-.27-.164-.033-.033-.067-.033-.1-.066a2.276 2.276 0 0 1-.37-.23c-.035-.032-.068-.032-.102-.065-.101-.065-.168-.098-.27-.164-.033-.033-.067-.033-.067-.065-.067-.066-.168-.099-.236-.164-.033-.033-.067-.066-.1-.066-.068-.066-.136-.098-.237-.164-.033-.033-.067-.066-.1-.066-.102-.065-.17-.164-.27-.23 0 0-.034 0-.034-.032-.101-.098-.202-.164-.303-.262l-.068-.066a3803691.086 3803691.086 0 0 0-.539-.525c-.1-.098-.168-.196-.27-.295-.033-.033-.033-.065-.067-.065-.067-.066-.134-.164-.202-.23-.033-.033-.033-.066-.067-.098l-.202-.296c-1.955-2.59-2.628-6.133-1.079-9.052"/><path d="M13.171 9.811c-1.28 1.804-1.213 4.165-.202 6.068.168.328.37.623.573.918.202.262.404.59.64.787l.303.295.068.066c.1.098.202.164.303.262.1.099.236.197.337.263.033.032.067.032.067.065.101.099.236.164.37.263.068.032.102.065.17.098.033.033.067.033.067.066.1.065.168.098.27.164 0 0 .033 0 .033.032.067.033.168.099.236.132.033 0 .067.032.067.032.068.033.101.066.169.099h.033c.101.065.236.098.337.164.034 0 .034.033.068.033.1.032.202.065.27.098.033 0 .067.033.134.033.101.033.168.065.27.098.033 0 .067.033.1.033.135.033.236.098.371.098 6.604 1.05 8.12-3.87 8.12-3.87-1.381 1.935-4.043 2.854-6.873 2.132-.135-.033-.236-.066-.37-.098-.034 0-.068-.033-.102-.033-.1-.033-.168-.066-.27-.099-.033 0-.067-.032-.1-.032-.102-.033-.203-.066-.27-.099-.034 0-.067-.032-.067-.032-.101-.066-.236-.099-.337-.164-.068-.033-.101-.066-.169-.099-.033-.033-.067-.033-.1-.065-.068-.033-.136-.066-.203-.132-.034 0-.034-.032-.067-.032-.102-.066-.169-.099-.27-.164-.034-.033-.067-.033-.067-.066-.068-.033-.101-.066-.169-.098-.135-.066-.236-.164-.37-.263-.034-.033-.068-.033-.068-.065-1.247-.952-2.224-2.263-2.695-3.74-.506-1.54-.371-3.246.471-4.657"/><path d="M17.787 8.27a3.643 3.643 0 0 0-.303 3.607c.54 1.28 1.685 2.263 2.999 2.723.067.032.1.032.168.065.034 0 .034 0 .068.033a.638.638 0 0 0 .235.066c3.64.688 4.616-1.804 4.886-2.198-.876 1.214-2.325 1.509-4.11 1.082-.135-.032-.304-.098-.439-.13l-.505-.198c-.303-.164-.607-.328-.91-.524-1.583-1.181-2.594-3.411-1.55-5.248"/></g></g></svg>