<svg class="home-skill-icon home-skill-icon__less" width="4em" height="2.188em" viewBox="0 0 300.000000 129.000000" version="1" xmlns="http://www.w3.org/2000/svg"><title>Less</title><g fill="#214674"><path d="M19 1.9c-2 1-4.4 3.6-5.8 6.2-2.4 4.3-2.4 4.7-1.8 23.5C12 50 12 50.7 10 53.3c-1.4 1.8-3.5 2.9-6.1 3.3l-3.9.7v7.3c0 7 .1 7.4 2.3 7.4 2.7 0 8.6 3.5 8.9 5.2.1.7.2 10.4.3 21.5 0 18.7.1 20.3 2.1 22.9 4.2 5.7 6.7 6.8 16.9 7.2l9.5.4V116h-4c-2.9 0-4.2-.5-5-2.1-.7-1.2-1.1-8.7-1-20 0-15.7-.2-18.6-1.9-22.3-1.2-2.8-2.9-4.8-4.9-5.7l-2.9-1.3 3.1-2.1c5.9-3.9 6.6-6.8 6.5-27.8 0-13.2.3-19.3 1.2-20.3.7-.9 3.1-1.4 6.5-1.4H43v37c0 22.5.4 38.9 1.1 41.9 2.3 10.6 9.3 16.2 20.4 16 7.5-.1 11.1-1.1 10.8-3-.1-.8-.7-4.7-1.3-8.7-1.1-6.6-1.4-7.2-3.6-7.2-1.7 0-2.7-.8-3.4-2.6-.6-1.5-1-19.6-1-44.5V0H44.2C24.9 0 22.1.2 19 1.9zM260 6c0 5.6.2 6 2.3 6 3.8 0 6.5 1.1 7.2 2.8.3 1 .6 9.9.5 19.9 0 20.5.8 24.1 6 27.1 1.6.9 3 1.9 3 2.2 0 .3-1.4 1.3-3 2.2-5.2 2.9-6.1 7-6 24.7.2 21.6.2 21.8-1.6 23.5-.8.9-3.1 1.6-5 1.6H260v13h8.8c10.8 0 14.7-1.7 18-8.1 2.3-4.3 2.4-4.8 1.8-23.2-.4-12.4-.3-19.4.4-20.7 1.2-2.3 6-5 9-5 1.8 0 2-.6 2-7.4v-7.3l-3.9-.7c-2.6-.4-4.7-1.5-6.1-3.3-2-2.6-2-3.3-1.4-21.7.6-18.8.6-19.2-1.8-23.5-3.4-6.4-7.3-8.1-18-8.1H260v6z"/><path d="M97 30.5c-10.9 3.1-18.4 9.8-23.8 21.2-2.4 5.3-2.7 6.9-2.7 17.3 0 10.8.2 11.9 3.1 18 4.9 10.1 11.5 16 21.5 19.1 10.9 3.4 23.1 2.1 34.5-3.7 3-1.5 5.4-2.8 5.4-3 0-.1-1.8-3.4-4-7.2l-4.1-7-4.2 2c-2.3 1.2-6.9 2.3-10.3 2.6-10 .8-17.2-3.8-19.9-12.6l-.6-2.2h45l.6-5.3c1.3-10.9-2.9-25-9.6-31.6-7.3-7.4-20.2-10.5-30.9-7.6zm14.9 18c2.6 1.3 4 3.6 5.6 9.2.6 2.3.6 2.3-11.9 2.3-13.9 0-14.1-.1-11.1-6.1 3.2-6 11.3-8.6 17.4-5.4zM158.6 32c-12.9 5.1-19 18.4-13.5 29.7 2.9 5.9 7.6 9.6 19 14.3 10.6 4.5 13.2 6.6 12.7 10.1-.9 6.6-13.8 6-24.4-1l-3-2.1-5.2 7.7c-2.9 4.1-5.1 7.7-5 7.9 2.4 2.4 13.5 7.6 18.9 8.9 20.7 5.1 39.3-4.5 40.7-20.9 1-12-4.8-19.1-20.3-25-11.1-4.3-15.1-7.2-14.1-10.4 1.6-4.8 11.3-4.8 19.4-.1 1.8 1 3.7 1.9 4.1 1.9.4 0 2.9-3 5.6-6.6l4.9-6.7-2.5-2c-1.3-1.1-4.9-3.1-7.9-4.6-7.6-3.5-22.1-4.1-29.4-1.1zM219.9 31.3c-10.7 4-16 10.2-16.7 19.7-.6 7.9.1 10.3 4.5 15.1 3.7 4.1 9.7 7.6 20.5 11.8 6.9 2.8 9.3 5.1 8.4 8.5-1.4 5.7-12.7 5.7-22.2 0-3.2-1.9-5.8-3.3-5.9-3.2-.1.2-2.3 3.4-4.9 7.3-5.7 8.2-5.6 8.7 3.3 13.2 7.7 3.8 17.4 5.8 24.9 5 16.8-1.8 26.2-10.5 26.2-24.1 0-11-5.6-17.4-20.6-23.2-11-4.2-13.4-5.8-13.4-8.8 0-5.8 9-6.8 18.2-2.1 3.2 1.6 5.9 2.7 6.1 2.4.2-.2 2.5-3.3 5.2-6.8 5.6-7.4 5.8-7-5.5-12.5-5.6-2.7-7.8-3.1-15.5-3.4-5.7-.1-10.3.3-12.6 1.1z"/></g></svg>