<svg class="home-skill-icon home-skill-icon__pug" width="3.563em" height="2.188em" viewBox="0 0 57 35" xmlns="http://www.w3.org/2000/svg"><title>Pug</title><g fill-rule="nonzero" fill="none"><path d="M47.459 10.67c-.088-1.91.177-3.6-.708-5.032C44.63 2.082 39.322 0 28.71 0v.304h-.22.22V0C18.097 0 12.525 2.082 10.402 5.682c-.84 1.474-.752 3.122-.884 5.03-.089 1.519-.796 3.123-.487 4.858.354 2.255.487 4.51.84 6.593.266 1.691 2.654 3.122 2.875 4.727.619 4.424 5.306 6.462 15.92 6.462v.347H28.4h.309v-.347c10.613 0 15.124-2.038 15.699-6.462.22-1.648 2.432-3.036 2.697-4.727.354-2.082.487-4.338.84-6.593.31-1.735-.398-3.383-.486-4.9z" fill="#EFCCA3"/><path d="M27.764 12.035c1.921.044 3.261 1.226 4.512 2.32 1.475 1.27 3.977 2.144 5.005 3.239 1.027 1.094 2.368 2.188 2.86 3.895.49 1.707.625 3.895.625 4.464 0 .569.312.437 1.206 0 2.1-1.007 4.423-3.72 4.423-3.72-.268 1.707-2.546 3.238-2.77 4.858-.536 4.464-4.96 6.608-15.906 6.608h-.045.268" fill="#CCAC8D"/><path d="M35.93 9.157c.399 1.415 1.816 6.208-.93 4.61 0 0 1.152.685 1.86 3.286.753 2.602 2.569 2.922 2.569 2.922s2.967.593 5.182-1.37c1.86-1.643 2.17-4.564 1.373-6.8-.798-2.192-2.215-2.876-4.296-3.333-2.082-.502-6.245-.913-5.758.685z" fill="#CCAC8D"/><g transform="translate(35.814 9.628)"><ellipse fill="#000" cx="3.984" cy="3.651" rx="3.77" ry="3.53"/><ellipse fill="#FFF" cx="2.999" cy="2.086" rx="1" ry="1"/></g><path d="M34.486 13.64s3.384 2.355 5.226 4.666c1.842 2.311 1.8 2.747 1.8 2.747l-1.328.61s-1.885-3.619-4.199-4.97c-2.356-1.352-2.613-2.486-2.613-2.486l1.114-.567z" fill="#EFCCA3"/><path d="M28.444 12.035c-1.894.044-3.303 1.226-4.58 2.32-1.454 1.27-4.01 2.144-5.022 3.239-1.014 1.094-2.38 2.188-2.864 3.895-.484 1.707-.66 3.895-.66 4.464 0 .569.088.612-1.19 0-2.07-.963-4.36-3.72-4.36-3.72.264 1.707 2.51 3.238 2.73 4.858.617 4.464 4.978 6.608 15.77 6.608H28.488" fill="#CCAC8D"/><path d="M38.665 19.51c-2.103-2.622-5.475-5.068-10.162-5.068h-.044c-4.687 0-8.06 2.446-10.162 5.068-2.19 2.712-2.015 3.78-2.015 6.358 0 9.335 3.242 6.668 5.388 7.824 2.19 1.111 4.468.755 6.79.755h.043c2.365 0 4.599.312 6.789-.8 2.146-1.111 5.388 1.645 5.388-7.69.043-2.579.175-3.735-2.015-6.447z" fill="#56332B"/><path d="M28.99 17.652s-.439 4.697-1.316 5.616l1.628-.29-.313-5.326z" fill="#442823"/><path d="M28.801 17.652s.439 4.697 1.315 5.616l-1.628-.29.313-5.326z" fill="#442823"/><path d="M25.305 15.47c-.433-.993 1.124-2.59 3.59-2.632 2.466 0 4.024 1.596 3.591 2.631-.432 1.035-1.99 1.337-3.59 1.38-1.558-.043-3.159-.345-3.591-1.38z" fill="#56332B"/><path d="M28.683 17.1c0-.162 1.47-.203 2.247-.688 0 0-1.599.485-1.945.283-.345-.162-.432-.648-.432-.648s-.13.486-.389.648c-.302.162-2.117-.283-2.117-.283s2.42.566 2.42.688c0 .121-.043.526-.043.81 0 1.012 0 3.522.172 3.724.26.364.173-2.712.173-3.725-.043-.323-.043-.647-.086-.81z" fill="#000"/><path d="M29.105 23.268c.794 0 2.193.535 3.453 1.382-1.213-1.292-2.66-2.184-3.453-2.184-.84 0-2.613.98-3.872 2.407 1.306-.98 2.986-1.605 3.872-1.605z" fill="#7F4A41"/><path d="M28.313 30.618c-1.663 0-3.282-.535-4.77-.936-.306-.089-.612.134-.919.045-2.757-.89-4.988-2.405-6.345-4.32v.446c0 9.351 3.238 6.724 5.383 7.837 2.188 1.114 4.463.757 6.783.757h.043c2.363 0 4.595.312 6.783-.801 2.145-1.114 5.383 1.603 5.383-7.749 0-.356 0-.712.044-1.024-1.27 2.093-3.589 3.74-6.477 4.72-.263.09-.875-.133-1.138-.089-1.575.535-2.975 1.114-4.77 1.114z" fill="#442823"/><path d="M24.419 25.676s-1.313 3.343-.42 4.814l-1.208-.446s.892-3.388 1.628-4.368zM32.558 25.676s1.313 3.343.42 4.814l1.208-.446s-.945-3.388-1.628-4.368z" fill="#442823"/><path d="M21.86 9.157c-.398 1.415-1.815 6.208.93 4.61 0 0-1.15.685-1.86 3.286-.708 2.602-2.568 2.922-2.568 2.922s-2.967.593-5.182-1.37c-1.86-1.643-2.17-4.564-1.373-6.8.797-2.237 2.215-2.876 4.296-3.333 2.082-.502 6.2-.913 5.758.685z" fill="#CCAC8D"/><path d="M28.488 21.992c1.178 0 4.84 2.378 4.884 5.288v-.164c0-3.033-2.965-5.452-4.884-5.452-1.918 0-4.883 2.46-4.883 5.452v.164c.043-2.91 3.706-5.288 4.883-5.288z" fill="#000"/><g transform="translate(26.86 14.442)" fill="#331712"><ellipse transform="rotate(-14.46 2.32 1.153)" cx="2.118" cy="1.153" rx="1" ry="1"/><ellipse transform="rotate(17.235 .71 1.268)" cx=".507" cy="1.268" rx="1" ry="1"/></g><g transform="translate(12.21 9.628)"><ellipse fill="#000" cx="4.16" cy="3.651" rx="3.979" ry="3.53"/><ellipse fill="#FFF" cx="5.2" cy="2.086" rx="1.04" ry="1"/></g><path d="M29.302 13.645c0-.073-.968.725-1.22.797-.253-.072-1.222-.87-1.222-.797h2.442z" fill="#7F4A41"/><path d="M21.677 13.64s-3.384 2.355-5.227 4.666c-1.842 2.311-1.799 2.747-1.799 2.747l1.328.61s1.885-3.619 4.199-4.97c2.313-1.352 2.613-2.486 2.613-2.486l-1.114-.567z" fill="#EFCCA3"/><path d="M14.634 7.221s-1.258 3.393-4.053 4.814c0 0 4.379-.504 4.053-4.814zM42.343 7.221s1.258 3.393 4.052 4.814c0 0-4.378-.504-4.052-4.814zM35 12.035s-2.629-2.331-6.15-2.407h.045.045c-3.565.076-6.15 2.407-6.15 2.407 3.075-1.805 5.704-1.767 6.15-1.767-.045 0 2.985-.038 6.06 1.767zM31.744 8.024s-1.247-2.351-2.911-2.407h.083c-1.248.056-2.87 2.407-2.87 2.407 1.415-1.848 2.87-1.792 2.87-1.792s1.373-.056 2.828 1.792zM16.28 19.61s-2.11.764-3.635.299H12.6c-1.346-.564-2.019-2.257-2.019-2.257s1.346 2.987 5.698 1.958zM39.884 19.61s2.108.764 3.634.299c1.794-.564 2.063-2.257 2.063-2.257s-1.346 2.987-5.697 1.958z" fill="#CCAC8D"/><path d="M18.72 6.714c1.128-.186 2.991-.223 4.464.185 1.864.556.347 2.593.737 2.704.39.112.91-1.407 4.377-1.26 3.51.149 3.9 1.483 4.377 1.26.477-.222-.477-3.704 4.767-2.89 0 0-5.504-1.26-5.244 2.15 0 0-3.163-2.075-7.583-.223.043 0 1.17-3.186-5.894-1.926zM38.256 6.419c.163 0 .244.08.325.08.082 0-.081-.08-.325-.08zM17.093 1.605s-4.884 6.025-5.607 8.329c-.724 2.348-1.266 11.961-1.9 13.334l-2.26-9.48 4.16-9.88 5.607-2.303zM39.884 1.605s4.883 6.025 5.607 8.329c.723 2.348 1.266 11.961 1.9 13.334l2.26-9.48-4.16-9.88-5.607-2.303z" fill="#CCAC8D"/><path d="M39.898 1.767s4.849 4.375 6.27 9.427c1.421 5.052.836 11.186 1.923 11.952 1.546 1.083 3.302-5.367 3.887-6.044.92-1.082 3.97-3.833 4.18-4.33.209-.496-6.186-8.028-8.987-9.516-3.385-1.714-7.565-1.85-7.273-1.489z" fill="#56332B"/><path d="M43.953 4.012s5.87 7.503 5.784 16.85l2.356-4.803c-.043 0-2.1-6.13-8.14-12.047z" fill="#442823"/><path d="M16.265 1.767s-4.85 4.375-6.27 9.427c-1.421 5.052-.836 11.186-1.923 11.952-1.546 1.083-3.302-5.367-3.887-6.044-.92-1.082-3.971-3.833-4.18-4.33-.209-.496 6.186-8.028 8.987-9.516 3.385-1.714 7.565-1.85 7.273-1.489z" fill="#56332B"/><path d="M13.023 4.012s-5.9 7.503-5.814 16.85l-2.325-4.803s2.067-6.13 8.14-12.047z" fill="#442823"/><path d="M8.953 21.377s.704 2.477 1.83 3.257c1.127.78.353-.596.353-.596s-1.197-.413-.986-3.579c.211-3.165-1.197.918-1.197.918zM48.023 21.377s-.704 2.477-1.83 3.257c-1.126.78-.352-.596-.352-.596s1.197-.413.986-3.579c-.212-3.165 1.196.918 1.196.918z" fill="#CCAC8D"/><g transform="translate(21.163 18.454)" fill="#442823"><ellipse cx="3.391" cy=".602" rx="1" ry="1"/><ellipse cx="1.311" cy="2.527" rx="1" ry="1"/><ellipse cx=".633" cy=".602" rx="1" ry="1"/></g><g transform="translate(31.744 18.454)" fill="#442823"><ellipse cx=".407" cy=".602" rx="1" ry="1"/><ellipse cx="2.279" cy="2.527" rx="1" ry="1"/><ellipse cx="2.89" cy=".602" rx="1" ry="1"/></g></g></svg>