<svg width="76px" height="106px" viewBox="0 0 76 106" version="1.1" xmlns="http://www.w3.org/2000/svg" xmlns:xlink="http://www.w3.org/1999/xlink">
  <title>HTML5 Icon</title>
  <g id="html5-icon" stroke="none" stroke-width="1" fill="none" fill-rule="evenodd">
    <g id="html5" fill-rule="nonzero">
      <polygon id="Shape" fill="#E44F26" points="6.91699747 96.7941321 0.0790643906 20.7102045 75.2154957 20.7102045 68.3704897 96.7818532 37.6013065 105.244004"></polygon>
      <polygon id="Shape" fill="#F1662A" points="37.64728 98.776043 62.510126 91.9379618 68.3598805 26.9310842 37.64728 26.9310842"></polygon>
      <polygon id="Shape" fill="#EBEBEB" points="37.64728 55.1496963 25.2003221 55.1496963 24.3404652 45.5942246 37.64728 45.5942246 37.64728 36.2625291 37.6146944 36.2625291 14.0605788 36.2625291 14.2858997 38.7661669 16.5977122 64.48064 37.64728 64.48064"></polygon>
      <polygon id="Shape" fill="#EBEBEB" points="37.64728 79.3836877 37.6061059 79.3952148 27.1302005 76.5888651 26.4603003 69.1468637 21.3701196 69.1468637 17.0180417 69.1468637 18.3358658 83.7980691 37.6038325 89.1045484 37.64728 89.0925201"></polygon>
      <polygon id="Shape" fill="#010101" points="7.06982161 0.0338295574 11.8500597 0.0338295574 11.8500597 4.71884738 16.222851 4.71884738 16.222851 0.0338295574 21.0033417 0.0338295574 21.0033417 14.2216954 16.2231036 14.2216954 16.2231036 9.47102314 11.8505649 9.47102314 11.8505649 14.2216954 7.06982161 14.2216954"></polygon>
      <polygon id="Shape" fill="#010101" points="27.2890871 4.73864394 23.0807396 4.73864394 23.0807396 0.0338295574 36.2796934 0.0338295574 36.2796934 4.73864394 32.0695778 4.73864394 32.0695778 14.2216954 27.2893397 14.2216954 27.2893397 4.73864394"></polygon>
      <polygon id="Shape" fill="#010101" points="38.3745209 0.0338295574 43.3591139 0.0338295574 46.424943 5.01905338 49.4882461 0.0338295574 54.4743547 0.0338295574 54.4743547 14.2216954 49.7138196 14.2216954 49.7138196 7.18940743 46.4246904 12.2337703 46.3425948 12.2337703 43.0516974 7.18940743 43.0516974 14.2216954 38.3742683 14.2216954 38.3742683 0.0338295574"></polygon>
      <polygon id="Shape" fill="#010101" points="56.8533593 0.0338295574 61.6348604 0.0338295574 61.6348604 9.53191634 68.3571018 9.53191634 68.3571018 14.2214448 56.8531067 14.2214448 56.8531067 0.0338295574"></polygon>
      <polygon id="Shape" fill="#FFFFFF" points="37.6146944 55.1496963 37.6146944 64.48064 49.1975013 64.48064 48.105756 76.5826004 37.6146944 79.3917066 37.6146944 89.1000378 56.8983224 83.7980691 57.0395269 82.2218623 59.250046 57.6553389 59.4794085 55.1496963 56.9448012 55.1496963"></polygon>
      <polygon id="Shape" fill="#FFFFFF" points="37.6146944 36.2625291 37.6146944 42.0581588 37.6146944 45.5711704 37.6146944 45.5942246 60.3051641 45.5942246 60.3051641 45.5942246 60.3354763 45.5942246 60.5241699 43.496792 60.9525827 38.7661669 61.177651 36.2625291"></polygon>
    </g>
  </g>
</svg>