<svg width="35px" height="75px" viewBox="0 0 35 75" version="1.1" xmlns="http://www.w3.org/2000/svg" xmlns:xlink="http://www.w3.org/1999/xlink">
  <title>Gulp Icon</title>
  <g id="gulp" stroke="none" stroke-width="1" fill="none" fill-rule="evenodd">
    <g fill-rule="nonzero">
      <path d="M26.3486092,72.2388761 L27.0762728,60.3150318 L29.0854932,56.9421253 C29.0854932,56.9421253 24.5124888,58.7817966 16.8565345,58.7817966 C9.20044613,58.7817966 4.69676218,56.9761445 4.69676218,56.9761445 L6.94853711,60.6554871 L7.74511892,72.2388761 C7.74511892,73.480707 11.9095751,74.4873047 17.0469311,74.4873047 C22.1840189,74.4873047 26.3486092,73.480707 26.3486092,72.2388761 M24.0532576,16.5562506 L25.5805869,10.6193813 L34.0386204,1.86722945 L31.8093713,0 L22.8548317,9.32322525 L21.0814618,16.4162182 C19.7467862,16.3722395 18.4114515,16.350392 17.0760269,16.3506852 C7.64522775,16.3506852 0,17.4076523 0,18.7111924 C0,20.0148643 7.64522775,21.0716995 17.0760269,21.0716995 C26.506692,21.0716995 34.1517857,20.0148643 34.1517857,18.7111924 C34.1517857,17.7512721 30.0054306,16.9250551 24.0532576,16.5562506" id="Shape" fill="#D34A47"></path>
      <path d="M23.3873634,19.7178572 C23.3873634,19.7178572 23.0624423,19.7719388 22.1066446,19.7749705 C21.1505836,19.7779044 20.4717657,19.7703741 20.2013713,19.587494 C20.128669,19.5383999 20.0888935,19.4408965 20.0892886,19.3748836 C20.0900789,19.2492147 20.2101956,19.1751824 20.3632392,19.1288267 L20.5079852,19.2974285 C20.4450292,19.313565 20.4090732,19.3326354 20.4089415,19.3529771 C20.4084147,19.4484268 21.3864708,19.5137551 22.1345665,19.5067138 C22.882794,19.499868 23.7868308,19.4540991 23.787621,19.3600185 C23.787621,19.3315596 23.7192651,19.3047633 23.6003337,19.2836391 L23.7444211,19.1162109 C23.9382938,19.1609041 24.1075373,19.2472587 24.1071422,19.3966923 C24.1052983,19.6507685 23.6698749,19.6893983 23.3873634,19.7178572" id="Shape" fill="#FFFFFF"></path>
      <path d="M33.4176453,1.9795605 C33.6272572,1.73821387 33.3091387,1.1208829 32.7071321,0.600907379 C32.1048611,0.0811953337 31.4466848,-0.144606047 31.2366764,0.0967405863 C31.0269322,0.338087219 31.3451829,0.955418182 31.9474539,1.47513023 C32.5494605,1.99497401 33.2079011,2.22103887 33.4176453,1.9795605 M25.4530514,43.1719768 C25.2554664,41.2770368 29.6111924,38.532641 28.49335,38.4447708 C26.0869095,38.5819116 24.8892402,41.2558268 23.6784865,44.0563435 C23.2348123,45.0827254 21.7166454,49.4593727 20.7209225,48.9205585 C19.7254639,48.3820077 22.0115031,44.7830182 22.6522338,42.6456777 C21.9129088,43.1860729 19.2015662,45.2858676 18.5028156,43.3193932 C17.3794223,44.2704201 14.9789292,44.785653 15.249733,42.2874782 C14.6520878,43.3427111 13.3107563,44.8159531 11.7007355,44.20376 C9.58637722,43.4000177 12.925895,36.6864447 13.7562808,37.0251468 C14.5867989,37.3637171 13.588697,38.8930801 13.3272768,39.4869615 C12.7523637,40.7939483 12.0882401,42.4370025 12.5319143,42.7733332 C13.291989,43.3495615 15.3603542,40.5934409 15.4063473,40.5328408 C15.793191,40.0234044 16.8953059,36.6905286 17.7835796,37.0732316 C18.6718532,37.4559347 15.5679837,41.8564268 16.7285151,42.7297275 C16.9625773,42.9059948 17.920237,42.6210425 18.5028156,41.9927771 C18.8797471,41.586361 18.7500943,40.6861855 20.0065766,37.6993892 C21.2630589,34.7127246 22.3828837,30.9931935 23.2445924,31.2765651 C24.1063011,31.5598048 23.3960523,33.4688409 23.0869209,34.1804973 C21.6362898,37.5206187 19.1278187,43.0387882 20.3108179,42.6210425 C21.4938171,42.2034285 22.1098331,42.1789249 23.2682498,40.8276736 C24.4266665,39.4764223 24.3732722,37.2506847 25.1453738,37.2979791 C25.9177397,37.3454053 25.7880869,38.0590378 25.6008107,38.6024629 C26.3607532,37.7356175 29.2030703,35.9099725 29.8892653,37.7180962 C30.7020733,39.8587301 25.8227139,42.9507863 27.0392827,42.7930942 C28.2254538,42.6393542 30.1471171,41.4261658 30.9675906,40.3231116 L33.2260076,20.0845102 C33.2260076,20.0845102 30.9534491,21.9591622 16.4955101,21.9591622 C2.03743887,21.9591622 0,20.123505 0,20.123505 L1.9227206,38.5965347 C2.94329033,35.7052494 5.36677999,29.8570727 9.18684572,30.0533645 C10.9245368,30.1426838 13.2442778,33.4779309 11.2571934,33.5909633 C10.4161023,33.638653 10.3307244,31.9261722 9.33473713,31.6746816 C8.61602978,31.4931447 7.6154168,32.0755647 6.96873877,32.7065966 C5.67908332,33.9647081 2.90535929,38.928518 3.27184982,41.4032432 C3.73878492,44.5582708 7.63960279,40.3069077 8.29962937,39.0447122 C8.76444985,38.1556028 9.07847131,35.5213412 10.0950761,35.7977305 C11.1118131,36.0741198 10.0063941,38.7926947 9.26944816,41.1962805 C8.44157341,43.8952262 8.00635765,46.742247 6.96873877,46.4147428 C5.93098773,46.087502 7.62136417,42.6032576 7.56017228,41.9927771 C6.58480261,42.8897909 4.78790206,45.1607152 2.48904296,44.0367144 L3.68314391,55.5083203 C3.68314391,55.5083203 6.85679594,58.0078125 16.4171369,58.0078125 C25.9774778,58.0078125 29.2686236,55.5473152 29.2686236,55.5473152 L30.7513705,42.2604716 C29.5382379,43.4379587 25.6988763,45.5289269 25.4530514,43.1719768" id="Shape" fill="#D34A47"></path>
    </g>
  </g>
</svg>