<svg width="77px" height="106px" viewBox="0 0 77 106" version="1.1" xmlns="http://www.w3.org/2000/svg" xmlns:xlink="http://www.w3.org/1999/xlink">
  <title>CSS3 Icon</title>
  <g id="css3-icon" stroke="none" stroke-width="1" fill="none" fill-rule="evenodd">
    <g id="css3" fill-rule="nonzero">
      <path d="M58.9831882,3.97562364 L52.6708231,3.97562364 L59.2352941,11.1000865 L59.2352941,14.4913604 L45.7141305,14.4913604 L45.7141305,10.5208514 L52.277323,10.5208514 L45.7141305,3.39613289 L45.7141305,0 L58.9831882,0 L58.9831882,3.97562364 Z M43.0340344,3.97562364 L36.7216694,3.97562364 L43.2858847,11.1000865 L43.2858847,14.4913604 L29.764721,14.4913604 L29.764721,10.5208514 L36.3286807,10.5208514 L29.764721,3.39613289 L29.764721,0 L43.0340344,0 L43.0340344,3.97562364 Z M27.2408489,4.1369911 L20.4293856,4.1369911 L20.4293856,10.3546251 L27.2408489,10.3546251 L27.2408489,14.4913604 L15.5882353,14.4913604 L15.5882353,1.42108547e-14 L27.2408489,1.42108547e-14 L27.2408489,4.1369911 Z" id="Shape" fill="#131313"></path>
      <polygon id="Shape" fill="#1572B6" points="6.95157733 96.7903212 0 20.5929859 76.3823529 20.5929859 69.4243558 96.778024 38.1444406 105.253039"></polygon>
      <polygon id="Shape" fill="#33A9DC" points="38.1911765 99.1514134 63.4297479 92.255074 69.3676471 26.6946113 38.1911765 26.6946113"></polygon>
      <g id="Group" transform="translate(14.029412, 35.847049)">
        <polygon id="Shape" fill="#FFFFFF" points="24.1095856 19.1027145 36.775234 19.1027145 37.6499413 9.45419391 24.1095856 9.45419391 24.1095856 0.0316286864 24.1427437 0.0316286864 48.1107003 0.0316286864 47.8811635 2.55964633 45.5287329 28.5245206 24.1095856 28.5245206"></polygon>
        <polygon id="Shape" fill="#EBEBEB" points="24.1669055 43.5726905 24.125008 43.5843298 13.465043 40.7506526 12.7833728 33.2361827 7.60375876 33.2361827 3.17547278 33.2361827 4.51619368 48.030058 24.1226946 53.3882105 24.1669055 53.3760651"></polygon>
        <polygon id="Shape" fill="#FFFFFF" points="35.9617023 28.1257461 34.8091347 40.7443268 24.1337473 43.5807874 24.1337473 53.383656 43.7559277 48.030058 43.8998702 46.4385025 45.5649756 28.1257461"></polygon>
        <polygon id="Shape" fill="#EBEBEB" points="24.1427437 0.0316286864 24.1427437 5.88369476 24.1427437 9.43091519 24.1427437 9.45419391 1.05335013 9.45419391 1.05335013 9.45419391 1.02276236 9.45419391 0.830753442 7.33633707 0.394556477 2.55964633 0.165790832 0.0316286864"></polygon>
        <polygon id="Shape" fill="#EBEBEB" points="24.1095856 19.1037266 24.1095856 24.9560457 24.1095856 28.5027601 24.1095856 28.5260388 13.6151544 28.5260388 13.6151544 28.5260388 13.5845666 28.5260388 13.3928148 26.408435 12.9563608 21.6317442 12.7275951 19.1037266"></polygon>
      </g>
    </g>
  </g>
</svg>