<svg width="47px" height="35px" viewBox="0 0 47 35" version="1.1" xmlns="http://www.w3.org/2000/svg" xmlns:xlink="http://www.w3.org/1999/xlink">
  <title>Sass Icon</title>
  <g id="sass-icon" stroke="none" stroke-width="1" fill="none" fill-rule="evenodd">
    <g id="sass" fill="#CF649A" fill-rule="nonzero">
      <path d="M40.3348913,19.8117458 C38.6966591,19.8207364 37.2780783,20.2073345 36.0883008,20.7827362 C35.6489983,19.9286243 35.2096958,19.1824001 35.1364787,18.6249797 C35.0541095,17.9776528 34.9534361,17.5820641 35.0541095,16.808868 C35.154783,16.035672 35.6123898,14.9388124 35.6123898,14.8489059 C35.6032376,14.7679901 35.5117163,14.3724014 34.5690464,14.3634107 C33.6263765,14.3544201 32.8118365,14.5432238 32.7203152,14.7859714 C32.6287938,15.028719 32.4457511,15.5861394 32.3267734,16.1615411 C32.162035,17.0066624 30.4414336,20.0005495 29.4621552,21.5739136 C29.1418305,20.9625492 28.8672665,20.4231101 28.8123537,19.9915588 C28.7299845,19.3442319 28.629311,18.9486432 28.7299845,18.1754471 C28.8306579,17.4022511 29.2882647,16.3053915 29.2882647,16.215485 C29.2791125,16.1345692 29.1875912,15.7389805 28.2449213,15.7299898 C27.3022514,15.7209992 26.4877115,15.9098029 26.3961901,16.1525505 C26.3046688,16.3952981 26.2039953,16.9706998 26.0026483,17.5281202 C25.8104535,18.0855406 23.5224198,23.0843431 22.9275311,24.3879876 C22.6255106,25.0532958 22.3600987,25.5837443 22.1679039,25.9433704 C21.9757091,26.3029965 22.1587518,25.9703423 22.1404475,26.0063049 C21.9757091,26.3119871 21.8841877,26.4828095 21.8841877,26.4828095 L21.8841877,26.4918001 C21.7560578,26.7165664 21.6187758,26.9323421 21.5547109,26.9323421 C21.5089502,26.9323421 21.4174288,26.3299684 21.5730151,25.5028284 C21.9116441,23.7676326 22.7353362,21.0614464 22.7261841,20.9625492 C22.7261841,20.917596 22.8817704,20.4410914 22.1953603,20.1983438 C21.5272545,19.9555962 21.289299,20.3601755 21.2343861,20.3601755 C21.1794733,20.3601755 21.1337127,20.504026 21.1337127,20.504026 C21.1337127,20.504026 21.8750356,17.456195 19.7151318,17.456195 C18.3606159,17.456195 16.4935804,18.9036899 15.5692148,20.2253158 C14.9834781,20.5399886 13.7387878,21.2052968 12.4208804,21.9155583 C11.917513,22.1852779 11.3958413,22.4729787 10.9016261,22.7337076 L10.8009526,22.6258198 C8.18344207,19.883671 3.34196282,17.9416902 3.54330978,14.2555229 C3.61652686,12.9159158 4.09243786,9.38258957 12.8418786,5.10303927 C20.0080001,1.59668503 25.7463886,2.55868478 26.7439712,4.69845993 C28.1625521,7.75528158 23.6780061,13.4373736 16.2281685,14.2555229 C13.3910067,14.5701957 11.8992088,13.4913175 11.5239712,13.0867382 C11.1304294,12.6641775 11.0755166,12.6461962 10.9290825,12.7271121 C10.691127,12.8529812 10.8375611,13.2305886 10.9290825,13.4553549 C11.1487337,14.021766 12.0639472,15.028719 13.6198101,15.5321955 C14.9834781,15.9727374 18.3148552,16.215485 22.3417944,14.6870742 C26.8537968,12.9698597 30.3773687,8.20481417 29.3431775,4.22195538 C28.290682,0.167171373 21.4448852,-1.16344511 14.974326,1.09320852 C11.1212773,2.4418063 6.94790389,4.54561885 3.94600371,7.30574898 C0.376671177,10.5783463 -0.190761175,13.4373736 0.0471943276,14.6241396 C0.880038585,18.8587367 6.819774,21.6188668 9.19932902,23.6597448 C9.08035127,23.7226794 8.97052566,23.7856139 8.86985217,23.8395578 C7.68007466,24.4149596 3.14976799,26.7435384 2.01490329,29.206977 C0.73360443,31.9940791 2.21625025,33.9989945 3.2046808,34.268714 C6.26149379,35.1048447 9.39152385,33.6034058 11.0846688,31.1309765 C12.7686616,28.6585473 12.5673146,25.4488845 11.7893831,23.9834083 L11.7619267,23.9294644 L12.6954445,23.3900252 C13.2994854,23.0393898 13.8943741,22.7157263 14.4160458,22.4370161 C14.1231775,23.2192029 13.9126784,24.14524 13.8028528,25.4938378 C13.6747229,27.0761925 14.3336766,29.1260612 15.2031294,29.9352198 C15.587519,30.2858552 16.0451258,30.2948459 16.3288419,30.2948459 C17.3355768,30.2948459 17.7931835,29.4766966 18.2965509,28.4967155 C18.9188961,27.3009588 19.4680241,25.9163984 19.4680241,25.9163984 C19.4680241,25.9163984 18.781614,29.6655003 20.6578017,29.6655003 C21.3442118,29.6655003 22.0306219,28.793407 22.3417944,28.3438744 L22.3417944,28.3528651 C22.3417944,28.3528651 22.3600987,28.3258931 22.3967073,28.2629586 C22.4699243,28.1550707 22.5065329,28.0921362 22.5065329,28.0921362 L22.5065329,28.0741549 C22.7810969,27.606641 23.3942899,26.5367534 24.3095034,24.765595 C25.4901288,22.4819694 26.6249935,19.6229421 26.6249935,19.6229421 C26.6249935,19.6229421 26.7348191,20.3242129 27.0734481,21.4750164 C27.274795,22.1583059 27.7140975,22.90453 28.0527265,23.6327728 C27.7781625,24.0103802 27.613424,24.2261559 27.613424,24.2261559 L27.6225762,24.2351465 C27.4029249,24.5228474 27.1558173,24.8285295 26.8995575,25.1342117 C25.9660398,26.2310712 24.8494794,27.4807719 24.7030452,27.8403979 C24.5291546,28.2629586 24.5657632,28.5776314 24.9043922,28.8293696 C25.1514998,29.0091827 25.5908023,29.0451453 26.0575611,29.0091827 C26.8995575,28.9552388 27.4852941,28.7484538 27.7781625,28.6225846 C28.2357692,28.4607529 28.7574409,28.2180053 29.2608083,27.8583792 C30.1760217,27.193071 30.734302,26.2490525 30.6793892,24.9903613 C30.6519327,24.2980811 30.4231294,23.6147915 30.1394132,22.9674646 C30.2217824,22.8505861 30.3041516,22.7337076 30.3865208,22.6078385 C31.8325581,20.5309979 32.9491186,18.2473723 32.9491186,18.2473723 C32.9491186,18.2473723 33.0589442,18.9486432 33.3975732,20.0994466 C33.5714637,20.683839 33.9192448,21.3221753 34.2304174,21.9515209 C32.8759015,23.0393898 32.024753,24.2980811 31.7318846,25.1252211 C31.1919087,26.6536319 31.6129069,27.3459121 32.4091426,27.5077438 C32.7660759,27.579669 33.2785954,27.4178373 33.6629851,27.2560056 C34.1388961,27.1031645 34.7154806,26.8424356 35.2463044,26.4558375 C36.1615178,25.7905293 37.0401228,24.8644921 36.9943621,23.6147915 C36.9669057,23.0393898 36.8113194,22.4729787 36.6008203,21.9335396 C37.7539893,21.4660257 39.2457872,21.1963062 41.1402791,21.4210725 C45.212979,21.8885864 46.0183669,24.3879876 45.8627806,25.4309032 C45.7071943,26.4738188 44.8560458,27.0492206 44.5723296,27.2290336 C44.2886134,27.399856 44.1970921,27.4627905 44.2245485,27.5886597 C44.261157,27.7774634 44.3892869,27.7684727 44.6363946,27.7325101 C44.9750235,27.6785662 46.7779941,26.8783982 46.8512112,24.9543987 C46.9610368,22.4819694 44.5723296,19.7847738 40.3348913,19.8117458 Z M8.92476498,30.21393 C7.57940118,31.661425 5.6849093,32.2098548 4.87952145,31.7423409 C4.01006865,31.247855 4.34869763,29.1170705 6.00523401,27.579669 C7.01196883,26.6446412 8.32072409,25.7815386 9.18102475,25.2510902 C9.37321958,25.1342117 9.66608789,24.9633893 10.013869,24.7566043 C10.0687818,24.7206417 10.1053904,24.7026604 10.1053904,24.7026604 C10.1694553,24.6666978 10.2426724,24.6217445 10.3158895,24.5767913 C10.9290825,26.7705104 10.3433459,28.6945099 8.92476498,30.21393 Z M18.7633098,23.6417635 C18.2965509,24.765595 17.3081204,27.6515942 16.7132316,27.4897625 C16.2007121,27.3549027 15.8895395,25.1701743 16.6125581,23.0124179 C16.9786435,21.924549 17.756575,20.6298951 18.2141817,20.1264186 C18.9555046,19.3172599 19.7608925,19.0475404 19.9622394,19.3801945 C20.2001949,19.8117458 19.0561781,22.9404926 18.7633098,23.6417635 Z M26.8812533,27.4537999 C26.6799063,27.5526971 26.4968636,27.6246223 26.4144944,27.5706784 C26.3504294,27.5347158 26.4968636,27.399856 26.4968636,27.399856 C26.4968636,27.399856 27.5127505,26.3299684 27.9154445,25.8354826 C28.1442478,25.5477817 28.4188119,25.2151276 28.7116802,24.8375202 L28.7116802,24.945408 C28.7116802,26.2400619 27.4486856,27.1031645 26.8812533,27.4537999 Z M33.1413134,26.0512582 C32.9948792,25.9433704 33.0131835,25.6107163 33.5073988,24.5678006 C33.6995936,24.1542306 34.1388961,23.4619505 34.8985232,22.8056329 C34.9900446,23.0753524 35.0449574,23.3360813 35.0358053,23.5788289 C35.0266531,25.1971463 33.8551799,25.7995199 33.1413134,26.0512582 Z" id="Shape"></path>
    </g>
  </g>
</svg>