<svg class="home-skill-icon home-skill-icon__gulp" width="2.188em" height="4.688em" viewBox="0 0 35 75" xmlns="http://www.w3.org/2000/svg"><title>Gulp</title><g fill-rule="nonzero" fill="none"><path d="M26.349 72.239l.727-11.924 2.01-3.373s-4.574 1.84-12.23 1.84c-7.656 0-12.16-1.806-12.16-1.806l2.253 3.68.796 11.583c0 1.242 4.165 2.248 9.302 2.248s9.302-1.006 9.302-2.248m-2.296-55.683l1.528-5.937 8.458-8.752L31.809 0l-8.954 9.323-1.774 7.093c-1.334-.044-2.67-.066-4.005-.065C7.646 16.35 0 17.408 0 18.71c0 1.304 7.645 2.36 17.076 2.36 9.43 0 17.076-1.056 17.076-2.36 0-.96-4.147-1.786-10.099-2.155" fill="#D34A47"/><path d="M23.387 19.718s-.325.054-1.28.057c-.956.003-1.635-.005-1.906-.188a.278.278 0 0 1-.112-.212c.001-.126.121-.2.274-.246l.145.168c-.063.017-.099.036-.1.056 0 .095.978.16 1.727.154.748-.007 1.652-.053 1.653-.147 0-.028-.069-.055-.188-.076l.144-.168c.194.045.364.131.363.28-.002.255-.437.293-.72.322" fill="#FFF"/><path d="M33.418 1.98c.21-.242-.109-.86-.71-1.38-.603-.519-1.261-.745-1.471-.503-.21.241.108.858.71 1.378.602.52 1.26.746 1.47.505m-7.964 41.192c-.198-1.895 4.158-4.64 3.04-4.727-2.406.137-3.604 2.81-4.815 5.611-.443 1.027-1.961 5.403-2.957 4.865-.996-.539 1.29-4.138 1.931-6.275-.74.54-3.45 2.64-4.15.673-1.123.951-3.523 1.467-3.252-1.032-.598 1.056-1.94 2.529-3.55 1.917-2.114-.804 1.226-7.518 2.056-7.179.83.339-.167 1.868-.429 2.462-.575 1.307-1.239 2.95-.795 3.286.76.577 2.828-2.18 2.874-2.24.387-.51 1.49-3.842 2.378-3.46.888.383-2.216 4.783-1.055 5.657.234.176 1.191-.109 1.774-.737.377-.407.247-1.307 1.504-4.294 1.256-2.986 2.376-6.706 3.238-6.422.861.283.151 2.192-.158 2.903-1.45 3.34-3.96 8.859-2.776 8.441 1.183-.418 1.799-.442 2.957-1.793 1.159-1.352 1.105-3.577 1.877-3.53.773.047.643.761.456 1.304.76-.866 3.602-2.692 4.288-.884.813 2.14-4.066 5.233-2.85 5.075 1.186-.154 3.108-1.367 3.929-2.47l2.258-20.238s-2.273 1.874-16.73 1.874C2.037 21.96 0 20.124 0 20.124l1.923 18.473c1.02-2.892 3.444-8.74 7.264-8.544 1.738.09 4.057 3.425 2.07 3.538-.84.048-.926-1.665-1.922-1.916-.719-.182-1.72.4-2.366 1.032-1.29 1.258-4.064 6.222-3.697 8.696.467 3.155 4.368-1.096 5.028-2.358.464-.89.778-3.524 1.795-3.247 1.017.276-.089 2.995-.826 5.398-.827 2.7-1.263 5.546-2.3 5.219-1.038-.327.652-3.812.591-4.422-.975.897-2.772 3.168-5.071 2.044l1.194 11.471s3.174 2.5 12.734 2.5 12.852-2.46 12.852-2.46L30.75 42.26c-1.213 1.178-5.052 3.269-5.298.912" fill="#D34A47"/></g></svg>